<?xml version="1.0" encoding="UTF-8" standalone="no"?>
<!DOCTYPE svg PUBLIC "-//W3C//DTD SVG 1.1//EN" "http://www.w3.org/Graphics/SVG/1.1/DTD/svg11.dtd">
<!-- Generated by Microsoft Visio, SVG Export Safeguards.svg Safeguards -->
<svg xmlns="http://www.w3.org/2000/svg" xmlns:xlink="http://www.w3.org/1999/xlink" xmlns:ev="http://www.w3.org/2001/xml-events"
		xmlns:v="http://schemas.microsoft.com/visio/2003/SVGExtensions/" width="3.38959in" height="1.64317in"
		viewBox="0 0 244.05 118.308" xml:space="preserve" color-interpolation-filters="sRGB" class="st12">
	<title>DevSecOps</title>
	<v:documentProperties v:langID="2057" v:metric="true" v:viewMarkup="false">
		<v:userDefs>
			<v:ud v:nameU="visV14CFF" v:prompt="" v:val="VT0(1):26"/>
			<v:ud v:nameU="visFlowchartType" v:prompt="" v:val="VT4(CrossFunctional)"/>
		</v:userDefs>
	</v:documentProperties>

	<style type="text/css">
	<![CDATA[
		.st1 {fill:#ffffff;fill-opacity:0.35;stroke:#e6e6e6;stroke-linecap:round;stroke-linejoin:round;stroke-width:0.75}
		.st2 {fill:#ffffff;fill-opacity:0.35;stroke:none;stroke-linecap:round;stroke-linejoin:round;stroke-width:0.75}
		.st3 {stroke:none;stroke-linecap:round;stroke-linejoin:round;stroke-width:0.75}
		.st4 {fill:#ffffff;fill-opacity:0.35}
		.st5 {fill:#9dbb61;fill-opacity:0.5;stroke:none;stroke-linecap:round;stroke-linejoin:round;stroke-width:0.75}
		.st6 {fill:#000000;font-family:Calibri;font-size:0.666664em}
		.st7 {fill:#7030a0;fill-opacity:0.5}
		.st8 {stroke:#000000;stroke-linecap:round;stroke-linejoin:round;stroke-width:0.75;visibility:hidden}
		.st9 {fill:#205867;fill-opacity:0.5}
		.st10 {fill:none;stroke:none;stroke-linecap:round;stroke-linejoin:round;stroke-width:0.24}
		.st11 {fill:#ffffff;font-family:Calibri;font-size:0.833336em}
		.st12 {fill:none;fill-rule:evenodd;font-size:12px;overflow:visible;stroke-linecap:square;stroke-miterlimit:3}
	]]>
	</style>

	<g v:mID="112" v:index="1" v:groupContext="backgroundPage">
		<v:userDefs>
			<v:ud v:nameU="msvVisioCreated" v:prompt="" v:val="VT0(0):26"/>
			<v:ud v:nameU="ShapeNumCriteria" v:prompt="" v:val="VT4(0,0,0,1,1,&#39;&#39;,0,0,0,1,0,1,)"/>
		</v:userDefs>
		<title>VBackground-1</title>
		<v:pageProperties width="3.38959" height="1.64317" v:drawingScale="0.0393701" v:pageScale="0.0393701" v:drawingUnits="24"
				v:shadowOffsetX="8.50394" v:shadowOffsetY="-8.50394"/>
		<g id="group43-1" v:mID="43" v:groupContext="group">
			<v:userDefs>
				<v:ud v:nameU="Background" v:val="VT0(0):26"/>
				<v:ud v:nameU="visVersion" v:val="VT0(15):26"/>
				<v:ud v:nameU="msvShapeCategories" v:prompt="" v:val="VT4(DoNotContain)"/>
				<v:ud v:nameU="msvVisioCreated" v:prompt="" v:val="VT0(0):26"/>
			</v:userDefs>
			<title>World</title>
			<g id="shape44-2" v:mID="44" v:groupContext="shape">
				<title>Sheet.44</title>
				<rect x="0" y="0" width="244.05" height="118.308" class="st1"/>
			</g>
			<g id="group45-4" transform="translate(0.141121,10.4001)" v:mID="45" v:groupContext="group">
				<title>Sheet.45</title>
				<g id="shape46-5" v:mID="46" v:groupContext="shape" transform="translate(63.383,-109.153)">
					<title>Sheet.46</title>
					<path d="M0 117.81 L0.85 118.31 L1.7 118.31 L0.85 117.81 L0 117.81 Z" class="st2"/>
				</g>
				<g id="shape47-7" v:mID="47" v:groupContext="shape" transform="translate(63.383,-109.153)">
					<title>Sheet.47</title>
					<path d="M0 117.81 L0.85 118.31 L1.7 118.31 L0.85 117.81 L0 117.81" class="st3"/>
				</g>
				<g id="shape48-10" v:mID="48" v:groupContext="shape" transform="translate(62.5342,-105.65)">
					<title>Sheet.48</title>
					<path d="M0 117.81 L0.85 118.31 L1.27 117.81 L0.42 117.81 L0.42 117.31 L0 117.81 Z" class="st2"/>
				</g>
				<g id="shape49-12" v:mID="49" v:groupContext="shape" transform="translate(62.5342,-105.65)">
					<title>Sheet.49</title>
					<path d="M0 117.81 L0.85 118.31 L1.27 117.81 L0.42 117.81 L0.42 117.31 L0 117.81" class="st3"/>
				</g>
				<g id="shape50-15" v:mID="50" v:groupContext="shape" transform="translate(66.3541,-106.15)">
					<title>Sheet.50</title>
					<path d="M0 116.31 L0 117.31 L2.55 117.31 L2.12 117.81 L2.55 117.81 L2.97 117.31 L3.4 117.31 L2.97 117.81 L3.4
								 117.81 L3.4 118.31 L3.82 118.31 L4.24 117.31 L3.82 117.31 L4.24 116.31 L3.4 117.31 L4.24 115.81
								 L3.82 115.81 L4.24 115.31 L2.97 115.31 L2.97 114.81 L2.97 114.31 L2.12 114.81 L3.4 113.3 L2.97 113.3
								 L0.85 115.81 L0 116.31 Z" class="st2"/>
				</g>
				<g id="shape51-17" v:mID="51" v:groupContext="shape" transform="translate(66.3541,-106.15)">
					<title>Sheet.51</title>
					<path d="M0 116.31 L0 117.31 L2.55 117.31 L2.12 117.81 L2.55 117.81 L2.97 117.31 L3.4 117.31 L2.97 117.81 L3.4
								 117.81 L3.4 118.31 L3.82 118.31 L4.24 117.31 L3.82 117.31 L4.24 116.31 L3.4 117.31 L4.24 115.81
								 L3.82 115.81 L4.24 115.31 L2.97 115.31 L2.97 114.81 L2.97 114.31 L2.12 114.81 L3.4 113.3 L2.97 113.3
								 L0.85 115.81 L0 116.31" class="st3"/>
				</g>
				<g id="shape52-20" v:mID="52" v:groupContext="shape" transform="translate(206.842,-129.168)">
					<title>Sheet.52</title>
					<path d="M0 117.31 L0.42 118.31" class="st3"/>
				</g>
				<g id="shape53-23" v:mID="53" v:groupContext="shape" transform="translate(206.842,-129.168)">
					<title>Sheet.53</title>
					<path d="M0.42 118.31 L1.7 117.31 L0 117.31 L0.42 118.31 Z" class="st2"/>
				</g>
				<g id="shape54-25" v:mID="54" v:groupContext="shape" transform="translate(206.842,-129.168)">
					<title>Sheet.54</title>
					<path d="M0.42 118.31 L1.7 117.31 L0 117.31 L0.42 118.31" class="st3"/>
				</g>
				<g id="shape55-28" v:mID="55" v:groupContext="shape" transform="translate(206.842,-129.168)">
					<title>Sheet.55</title>
					<path d="M0.42 118.31 L1.7 117.31 L0 117.31" class="st3"/>
				</g>
				<g id="shape56-31" v:mID="56" v:groupContext="shape" transform="translate(183.498,-131.67)">
					<title>Sheet.56</title>
					<path d="M0 118.31 L2.12 118.31 L0.42 117.81 L0 117.81 L0 118.31 Z" class="st2"/>
				</g>
				<g id="shape57-33" v:mID="57" v:groupContext="shape" transform="translate(183.498,-131.67)">
					<title>Sheet.57</title>
					<path d="M0 118.31 L2.12 118.31 L0.42 117.81 L0 117.81 L0 118.31" class="st3"/>
				</g>
				<g id="shape58-36" v:mID="58" v:groupContext="shape" transform="translate(184.347,-132.671)">
					<title>Sheet.58</title>
					<path d="M0 117.81 L2.97 118.31 L2.97 117.81 L0 117.81 Z" class="st2"/>
				</g>
				<g id="shape59-38" v:mID="59" v:groupContext="shape" transform="translate(184.347,-132.671)">
					<title>Sheet.59</title>
					<path d="M0 117.81 L2.97 118.31 L2.97 117.81 L0 117.81" class="st3"/>
				</g>
				<g id="shape60-41" v:mID="60" v:groupContext="shape" transform="translate(179.254,-132.671)">
					<title>Sheet.60</title>
					<path d="M0.42 117.81 L2.55 118.31 L4.24 118.31 L4.67 117.81 L2.55 117.31 L0.42 117.31 L0 117.31 L0.42 117.81
								 Z" class="st2"/>
				</g>
				<g id="shape61-43" v:mID="61" v:groupContext="shape" transform="translate(179.254,-132.671)">
					<title>Sheet.61</title>
					<path d="M0.42 117.81 L2.55 118.31 L4.24 118.31 L4.67 117.81 L2.55 117.31 L0.42 117.31 L0 117.31 L0.42 117.81"
							class="st3"/>
				</g>
				<g id="shape62-46" v:mID="62" v:groupContext="shape" transform="translate(158.457,-135.673)">
					<title>Sheet.62</title>
					<path d="M0 118.31 L2.55 118.31 L2.12 117.81 L0.42 117.31 L0 117.31 L0 118.31 Z" class="st2"/>
				</g>
				<g id="shape63-48" v:mID="63" v:groupContext="shape" transform="translate(158.457,-135.673)">
					<title>Sheet.63</title>
					<path d="M0 118.31 L2.55 118.31 L2.12 117.81 L0.42 117.31 L0 117.31 L0 118.31" class="st3"/>
				</g>
				<g id="shape64-51" v:mID="64" v:groupContext="shape" transform="translate(152.939,-136.174)">
					<title>Sheet.64</title>
					<path d="M0 117.31 L2.12 118.31 L5.09 118.31 L4.67 117.81 L1.27 116.81 L0.42 116.81 L0.42 117.31 L0 117.31 Z"
							class="st2"/>
				</g>
				<g id="shape65-53" v:mID="65" v:groupContext="shape" transform="translate(152.939,-136.174)">
					<title>Sheet.65</title>
					<path d="M0 117.31 L2.12 118.31 L5.09 118.31 L4.67 117.81 L1.27 116.81 L0.42 116.81 L0.42 117.31 L0 117.31"
							class="st3"/>
				</g>
				<g id="shape66-56" v:mID="66" v:groupContext="shape" transform="translate(135.961,-129.168)">
					<title>Sheet.66</title>
					<path d="M0.85 117.31 L2.12 118.31 L3.82 118.31 L2.97 117.31 L2.55 116.31 L4.24 114.31 L8.06 113.8 L7.64 113.3
								 L7.22 113.3 L6.37 113.3 L3.82 113.8 L1.7 114.31 L1.7 115.31 L1.27 115.31 L1.7 115.81 L0.85 116.31
								 L1.27 116.31 L0 116.81 L0.85 117.31 Z" class="st2"/>
				</g>
				<g id="shape67-58" v:mID="67" v:groupContext="shape" transform="translate(135.961,-129.168)">
					<title>Sheet.67</title>
					<path d="M0.85 117.31 L2.12 118.31 L3.82 118.31 L2.97 117.31 L2.55 116.31 L4.24 114.31 L8.06 113.8 L7.64 113.3
								 L7.22 113.3 L6.37 113.3 L3.82 113.8 L1.7 114.31 L1.7 115.31 L1.27 115.31 L1.7 115.81 L0.85 116.31
								 L1.27 116.31 L0 116.81 L0.85 117.31" class="st3"/>
				</g>
				<g id="shape68-61" v:mID="68" v:groupContext="shape" transform="translate(135.537,-127.667)">
					<title>Sheet.68</title>
					<path d="M0.42 118.31 L1.27 117.81 L0.42 117.81 L0 117.81 L0.42 118.31 Z" class="st2"/>
				</g>
				<g id="shape69-63" v:mID="69" v:groupContext="shape" transform="translate(135.537,-127.667)">
					<title>Sheet.69</title>
					<path d="M0.42 118.31 L1.27 117.81 L0.42 117.81 L0 117.81 L0.42 118.31" class="st3"/>
				</g>
				<g id="shape70-66" v:mID="70" v:groupContext="shape" transform="translate(135.961,-137.175)">
					<title>Sheet.70</title>
					<path d="M0 118.31 L2.55 118.31 L2.97 118.31 L2.55 117.81 L3.82 117.81 L3.4 117.81 L0 118.31 Z" class="st2"/>
				</g>
				<g id="shape71-68" v:mID="71" v:groupContext="shape" transform="translate(135.961,-137.175)">
					<title>Sheet.71</title>
					<path d="M0 118.31 L2.55 118.31 L2.97 118.31 L2.55 117.81 L3.82 117.81 L3.4 117.81 L0 118.31" class="st3"/>
				</g>
				<g id="shape72-71" v:mID="72" v:groupContext="shape" transform="translate(134.688,-137.675)">
					<title>Sheet.72</title>
					<path d="M0 118.31 L2.55 118.31 L2.12 118.31 L2.12 117.81 L1.27 118.31 L0 118.31 Z" class="st2"/>
				</g>
				<g id="shape73-73" v:mID="73" v:groupContext="shape" transform="translate(134.688,-137.675)">
					<title>Sheet.73</title>
					<path d="M0 118.31 L2.55 118.31 L2.12 118.31 L2.12 117.81 L1.27 118.31 L0 118.31" class="st3"/>
				</g>
				<g id="shape74-76" v:mID="74" v:groupContext="shape" transform="translate(134.264,-137.175)">
					<title>Sheet.74</title>
					<path d="M0 118.31 L1.27 118.31" class="st3"/>
				</g>
				<g id="shape75-79" v:mID="75" v:groupContext="shape" transform="translate(130.019,-137.175)">
					<title>Sheet.75</title>
					<path d="M0 118.31 L2.55 118.31 L2.97 118.31 L3.4 118.31 L1.7 117.81 L0 118.31 Z" class="st2"/>
				</g>
				<g id="shape76-81" v:mID="76" v:groupContext="shape" transform="translate(130.019,-137.175)">
					<title>Sheet.76</title>
					<path d="M0 118.31 L2.55 118.31 L2.97 118.31 L3.4 118.31 L1.7 117.81 L0 118.31" class="st3"/>
				</g>
				<g id="shape77-84" v:mID="77" v:groupContext="shape" transform="translate(114.315,-134.172)">
					<title>Sheet.77</title>
					<path d="M0 115.81 L0.42 116.31 L0.85 116.81 L1.27 116.81 L1.27 117.31 L2.97 118.31 L3.82 116.81 L4.67 116.81
								 L4.67 117.31 L7.22 117.31 L3.82 116.31 L3.82 115.81 L5.94 116.31 L8.06 115.81 L7.64 115.31 L4.24
								 115.31 L2.55 115.81 L0 115.81 Z" class="st2"/>
				</g>
				<g id="shape78-86" v:mID="78" v:groupContext="shape" transform="translate(114.315,-134.172)">
					<title>Sheet.78</title>
					<path d="M0 115.81 L0.42 116.31 L0.85 116.81 L1.27 116.81 L1.27 117.31 L2.97 118.31 L3.82 116.81 L4.67 116.81
								 L4.67 117.31 L7.22 117.31 L3.82 116.31 L3.82 115.81 L5.94 116.31 L8.06 115.81 L7.64 115.31 L4.24
								 115.31 L2.55 115.81 L0 115.81" class="st3"/>
				</g>
				<g id="shape79-89" v:mID="79" v:groupContext="shape" transform="translate(40.0391,-117.086)">
					<title>Sheet.79</title>
					<path d="M17.83 112.23 L18.25 112.23 a0.970214 0.970214 -180 0 0 1.69774 0 L18.25 110.23 L18.25 109.73 L16.55
								 112.23 L16.55 112.73 L17.83 112.23 ZM23.77 109.23 L24.19 109.23 L25.04 108.23 L24.62 108.23 a0.76167
								 0.76167 -180 0 0 -0.84887 1.00078 ZM25.04 103.72 A1.16045 1.16045 -180 0 0 26.74 104.22 L24.19 104.73
								 L25.04 103.72 ZM23.77 103.22 C22.57 103.15 21.53 103.25 20.37 103.72 C19.83 103.95 19.27 104.25
								 19.1 104.73 C18.84 105.47 19.57 106.64 20.37 106.73 L22.92 106.73 L23.34 107.23 A1.34704 1.34704
								 0 0 1 25.47 107.23 L24.62 107.73 A1.37224 1.37224 0 0 1 26.74 109.23 L24.19 109.73 L24.62 110.23
								 C23.51 112.04 21.66 108.12 21.22 111.73 A4.11872 4.11872 0 0 1 24.19 112.23 L24.62 112.23 C23.84
								 114.08 26.65 113.68 27.59 113.73 L26.74 112.73 L26.74 112.23 C27.19 112.63 28.02 113.64 28.86 113.23
								 C29.09 113.12 29.31 112.92 29.29 112.73 C29.24 112.36 28.2 112.1 29.29 111.73 L28.44 110.23 C28.45
								 109.46 29.61 109.65 29.71 110.23 C29.77 110.55 29.49 111 30.13 110.73 L32.26 109.23 L30.56 108.23
								 a0.896981 0.896981 0 0 1 -1.27331 -0.500391 L29.71 107.73 a0.76167 0.76167 -180 0 0 0.84887 -1.00078
								 A3.42263 3.42263 -180 0 0 28.01 104.73 L28.44 104.22 L27.16 104.22 L27.59 103.72 L25.47 103.22 a0.646054
								 0.646054 0 0 1 -1.27331 0 L23.77 103.22 ZM19.52 101.22 A1.16045 1.16045 -180 0 0 21.22 101.72 L20.37
								 102.72 L20.8 102.72 L23.77 102.72 L25.04 102.72 A2.14682 2.14682 -180 0 0 27.16 102.22 L22.92 101.72
								 a0.328076 0.328076 0 0 1 -0.424435 -0.500391 L19.95 101.22 L19.52 101.22 ZM25.47 97.72 L23.34 98.22
								 L22.92 99.72 L24.19 99.72 L26.74 98.72 L27.16 98.22 L25.47 97.72 ZM27.16 98.22 L28.01 98.22 L27.16
								 98.72 a0.328076 0.328076 0 0 1 0.424435 0.500391 A3.64001 3.64001 -180 0 0 23.34 101.22 L27.16 101.22
								 L27.16 101.72 L29.29 101.22 L28.86 100.22 a0.49269 0.49269 -180 1 0 0.84887 -0.500391 A4.14961 4.14961
								 -180 0 0 33.11 98.72 L40.02 97.36 L40.32 97.72 L39.05 97.72 L36.5 98.22 L37.77 98.22 a0.76167 0.76167
								 0 0 1 -0.84887 1.00078 L33.11 99.22 L32.68 99.72 a0.49269 0.49269 0 0 1 0.84887 0.500391 L32.68
								 101.22 L33.53 101.72 L36.93 101.72 L38.62 101.72 C37.63 102.02 38.42 102.38 38.66 102.76 C38.97
								 103.24 38.41 103.76 38.27 104.29 C38.2 104.58 38.25 104.87 37.77 104.73 a0.646054 0.646054 -180
								 0 0 1.27331 2.84217E-14 L39.05 105.23 L39.9 106.23 A1.79396 1.79396 -180 0 0 37.35 107.23 L39.47
								 106.73 C39.61 107.07 39.4 107.6 39.05 107.73 C38.59 107.9 37.91 107.38 37.77 108.23 L36.93 110.23
								 L37.35 110.23 L36.93 111.73 L37.35 112.73 L37.77 114.23 L38.2 114.73 L39.9 115.73 L40.32 115.73
								 L42.02 113.73 L42.02 113.23 A1.87855 1.87855 -180 0 0 43.72 110.73 L44.57 110.23 C46.99 111.58 47.97
								 109.04 49.66 108.23 C51.34 107.42 53.72 108.35 55.18 106.73 L55.6 106.73 A1.0575 1.0575 0 0 1 54.33
								 105.23 L54.75 105.23 L56.45 106.23 L56.45 105.23 C55.98 104.52 57.68 104.24 56.45 103.72 A1.64534
								 1.64534 -180 0 0 58.57 102.72 L58.15 102.72 L58.57 101.72 a0.49269 0.49269 0 0 1 -0.84887 -0.500391
								 A1.01712 1.01712 -180 1 0 59 99.72 L59.42 99.72 L59.42 99.22 L63.67 97.72 A10.23 10.23 -180 0 0
								 59 97.22 L59.85 96.72 L56.87 96.22 A97.941 97.941 0 0 1 33.95 96.72 L26.74 97.72 L27.16 98.22 ZM22.07
								 100.22 L22.5 99.72 L19.95 100.22 L22.07 100.22 ZM13.16 104.73 L14.01 105.23 A2.69413 2.69413 -180
								 0 0 16.55 103.72 L16.98 103.22 L14.43 103.22 L14.43 103.72 L13.16 104.22 L13.16 104.73 ZM6.79 102.22
								 L7.22 102.22 L8.06 101.72 L6.79 102.22 ZM7.22 103.72 L6.79 103.22 A4.75031 4.75031 -180 0 0 2.55
								 103.22 L2.55 103.72 L0 104.73 a0.328076 0.328076 0 1 1 0.424435 0.500391 C3.07 106.21 4.3 102.26
								 7.22 103.72 ZM54.75 110.73 L53.48 111.73 L54.75 111.73 L53.9 112.23 A4.75327 4.75327 -180 0 0 59
								 111.73 L59.85 110.23 C59.18 110.57 59.51 109.97 59.42 109.73 C59.34 109.51 58.9 109.6 58.57 109.73
								 C57.7 110.07 57.61 110.71 56.45 110.23 L56.45 109.73 L55.18 110.73 a0.891261 0.891261 -180 0 0 -1.69774
								 -0.500391 L54.75 110.73 ZM63.24 118.24 L63.67 117.24 C63 116.66 62.25 118.71 63.24 118.24 Z"
							class="st2"/>
				</g>
				<g id="shape80-91" v:mID="80" v:groupContext="shape" transform="translate(191.138,-8.33165)">
					<title>Sheet.80</title>
					<path d="M23.77 78.54 A1.16045 1.16045 -180 0 0 25.47 78.03 L26.31 76.53 L26.74 76.53 C28.38 77.32 27.44 80.85
								 30.13 79.54 C30.11 79.9 30.73 80.21 30.95 80.02 C31.19 79.82 30.95 79.05 30.53 79.03 C30.38 79.02
								 30.2 79.11 30.15 79.04 C30.08 78.96 30.18 78.66 30.13 78.53 C30.04 78.31 29.51 78.58 29.29 78.54
								 C28.67 78.42 30.31 76.05 28.44 76.53 C28.06 75.77 29.03 75.99 29.28 75.53 C29.37 75.38 29.38 75.14
								 29.29 75.03 C29.15 74.85 28.74 75.02 28.43 75.03 C28.06 75.04 27.81 74.83 27.62 74.55 C27.42 74.24
								 27.3 73.83 27.11 73.5 C26.02 71.61 22.7 72.8 21.65 70.53 A2.62504 2.62504 -180 0 0 19.95 72.53 L19.52
								 72.53 L18.25 69.53 C17.6 69.86 17.9 69.28 17.83 69.03 C17.66 68.45 15.44 69.71 16.13 70.03 a0.76167
								 0.76167 0 0 1 0.84887 1.00078 C18.82 69.52 18.82 73.54 16.98 72.03 C17.77 71.98 17.2 72.83 17.4
								 73.03 C17.59 73.22 18.44 72.85 18.25 72.53 A4.49273 4.49273 -180 0 0 21.22 74.03 L21.65 74.53 L22.07
								 76.53 L21.65 76.53 L21.22 78.03 A1.41917 1.41917 0 0 1 23.77 78.54 ZM15.7 81.54 L15.28 82.04 L15.28
								 83.54 L14.86 83.54 L14.01 84.04 L14.86 84.54 a0.646054 0.646054 0 0 1 -1.27331 -1.42109E-14 L13.16
								 85.04 L12.73 84.04 a0.328076 0.328076 -180 0 0 -0.424435 -0.500391 L11.46 84.54 L11.04 84.54 L10.19
								 86.04 L9.76 85.54 A1.00094 1.00094 0 0 1 8.91 87.04 L8.91 86.04 L8.06 87.04 L8.06 87.54 L6.79 89.54
								 L2.97 90.54 L1.7 92.05 L1.7 91.55 L0.85 94.05 L0.85 96.55 L0.42 95.55 L0.42 96.55 A12.2457 12.2457
								 0 0 1 0.42 103.55 L0 103.55 L0 105.06 C0.26 105.77 1.05 105.77 1.7 105.56 C3.21 105.05 3.93 103.36
								 5.94 104.56 A1.68209 1.68209 0 0 1 8.06 103.05 L12.31 102.05 A2.59796 2.59796 0 0 1 14.01 105.56
								 L16.55 103.55 L15.28 106.06 L16.55 105.06 L16.13 106.06 C16.79 105.78 16.47 106.25 16.55 106.56
								 C16.67 107 17.57 107.12 16.55 107.56 C15.91 110.22 19.34 108.98 19.95 108.06 L19.95 109.06 L20.37
								 109.06 L20.37 110.06 L25.04 106.56 C25.17 103.43 29.22 101.86 30.13 99.05 C30.65 97.45 30.15 95.43
								 29.29 94.05 L29.29 93.55 A1.00094 1.00094 -180 0 0 28.44 92.05 L28.01 90.04 L26.74 89.04 L26.31
								 84.54 L25.47 84.04 L25.04 80.54 L24.62 80.04 L24.62 80.54 L23.34 85.54 L22.5 87.04 L21.65 87.54
								 C21.22 87.15 21.25 85.59 20.37 85.54 C20.06 85.52 19.64 85.69 19.52 85.54 C19.32 85.27 20.06 84.02
								 18.68 84.54 A1.00094 1.00094 -180 0 0 19.52 83.04 L19.95 83.04 L20.37 81.54 L19.52 82.04 a0.49269
								 0.49269 -180 0 0 -0.84887 -0.500391 L16.98 80.54 a0.876076 0.876076 0 0 1 -1.27331 1.00078 ZM15.7
								 81.54 C15.94 81.48 16.36 80.82 16.13 80.54 C15.96 80.33 15.45 80.33 15.28 80.54 C15.05 80.82 15.47
								 81.48 15.7 81.54 ZM15.28 106.56 a0.328076 0.328076 -180 1 0 0.424435 -0.500391 L14.86 106.56 L15.28
								 106.56 ZM17.83 114.06 a0.328076 0.328076 -180 0 0 0.424435 0.500391 L19.52 114.06 L20.8 111.56 A1.87024
								 1.87024 0 0 1 18.25 111.56 L17.83 114.06 ZM39.9 110.06 A1.01437 1.01437 0 0 1 39.9 112.06 L40.32
								 112.06 L42.44 110.06 L44.57 108.06 L44.14 108.06 L42.87 109.06 A1.3921 1.3921 0 0 1 42.87 107.06
								 L42.02 107.56 L39.9 110.06 ZM42.44 105.56 L41.59 105.06 L41.59 107.56 L42.02 107.56 L42.44 106.06
								 L42.44 105.56 ZM37.77 111.56 C37.26 115.71 32.28 113.61 30.98 117.07 L31.83 117.57 C33.32 117.45
								 33.87 115.99 35.23 115.56 C36.18 115.27 37.53 115.48 36.93 114.06 L38.62 112.56 L39.05 112.06 a0.328076
								 0.328076 0 1 1 -0.424435 -0.500391 L37.77 111.56 ZM31.41 117.57 L30.56 118.07 a0.49269 0.49269 -180
								 0 0 0.84887 -0.500391 ZM16.55 76.53 L16.55 76.03 L16.13 77.53 L16.55 76.53 ZM18.68 75.03 L18.68
								 74.53 L18.25 76.03 L18.68 75.03 ZM14.01 68.53 C13.56 67.56 14.59 68.33 14.86 68.03 C14.95 67.91
								 14.95 67.65 14.86 67.53 C14.59 67.15 13.57 68.03 13.58 67.03 A1.3921 1.3921 -180 0 0 13.58 69.03
								 a0.328076 0.328076 0 0 1 0.424435 -0.500391 ZM16.13 73.03 A1.42411 1.42411 -180 0 0 13.58 72.53
								 L16.13 73.03 ZM16.13 69.53 L16.55 69.03 L15.7 69.03 L16.13 69.53 ZM20.37 70.03 a0.328076 0.328076
								 -180 1 0 -0.424435 -0.500391 L20.37 70.03 ZM30.13 75.53 C31.33 76.22 31.67 75.14 32.26 74.53 C32.41
								 74.38 32.57 74.25 32.68 74.03 C32.76 73.86 32.81 73.64 32.68 73.53 C32.57 73.44 32.33 73.43 32.26
								 73.53 C32.17 73.65 32.31 73.93 32.26 74.03 C32.14 74.24 31.11 73.6 31.41 74.53 L29.29 74.53 L30.13
								 75.53 ZM32.68 73.03 L33.11 74.03 A1.68054 1.68054 -180 0 0 32.26 72.03 L31.83 72.03 L32.68 73.03
								 ZM35.23 76.03 L35.65 75.53 L34.8 74.53 L35.23 76.03 ZM37.77 79.04 L38.62 79.54 a0.76167 0.76167
								 -180 0 0 -0.84887 -1.00078 L37.77 79.04 ZM39.9 80.04 L40.32 80.04 a0.896981 0.896981 -180 0 0 -1.27331
								 -0.500391 L39.9 80.04 ZM42.87 86.04 L43.29 86.04 L42.87 85.54 L42.87 86.04 ZM40.32 91.04 L41.17
								 92.05 L41.59 92.05 A2.62504 2.62504 -180 0 0 39.9 90.04 L40.32 91.04 ZM50.93 87.54 C51.36 87.92
								 51.55 87.23 51.36 87.04 C51.13 86.82 50.38 87.28 50.51 87.54 L50.93 87.54 ZM51.78 86.54 L52.63 86.04
								 L52.21 86.04 L52.63 85.54 a0.76167 0.76167 -180 0 0 -0.84887 1.00078 Z" class="st2"/>
				</g>
				<g id="shape81-93" v:mID="81" v:groupContext="shape" transform="translate(39.5059,0)">
					<title>Sheet.81</title>
					<path d="M11.57 49.69 A1.00094 1.00094 0 0 1 10.72 51.19 A1.00094 1.00094 0 0 1 11.57 49.69 ZM17.94 114.24 L17.94
								 113.74 L18.36 114.24 L17.94 114.24 ZM21.75 105.73 L21.33 105.73 A3.10892 3.10892 -180 0 0 20.48
								 103.23 C20.81 103.97 22.29 103.84 22.6 103.23 C22.8 102.84 22.52 102.25 22.6 101.73 C22.68 101.27
								 23.03 100.87 23.45 100.73 C24.51 100.37 26.06 101.6 25.57 99.23 a0.76167 0.76167 -180 0 0 -0.84887
								 -1.00078 L25.15 97.72 L23.88 96.72 L23.88 96.22 A2.34871 2.34871 -180 0 0 27.27 96.72 L27.7 96.22
								 A12.593 12.593 0 0 1 30.24 90.72 A3.06652 3.06652 0 0 1 31.09 86.22 L32.79 85.22 a0.985379 0.985379
								 0 1 1 1.69774 -1.00078 L35.34 82.71 A2.88086 2.88086 -180 0 0 36.61 79.21 L36.61 78.71 A8.84184
								 8.84184 0 0 1 38.73 70.7 A3.67227 3.67227 -180 0 0 37.88 65.7 L35.34 63.7 A1.44564 1.44564 0 0 1
								 32.79 62.7 L31.52 63.7 A1.4426 1.4426 -180 0 0 30.67 61.7 L29.39 61.2 L28.97 61.2 L28.55 62.2 L28.97
								 60.7 L28.55 60.7 A1.0575 1.0575 -180 0 0 27.27 62.2 A1.48718 1.48718 0 0 1 27.7 59.7 L27.27 58.69
								 L26.85 56.69 L26 56.19 L24.3 54.69 L23.88 54.69 C23.04 55.42 21.15 54.78 20.91 53.69 C20.74 52.96
								 21.33 52.02 20.06 51.69 L19.21 51.69 C19.77 50.53 18.93 50.69 18.38 50.19 C18.2 50.03 18.06 49.79
								 17.89 49.68 C17.31 49.29 16.45 50.27 15.79 50.18 C15.12 50.09 14.65 48.89 13.69 49.69 A1.64028 1.64028
								 -180 0 0 11.99 48.19 L11.57 49.69 L10.72 48.69 a0.76167 0.76167 -180 0 0 0.84887 -1.00078 L9.45
								 49.19 L9.02 49.19 C7.54 48.61 8.4 49.93 8.17 50.69 C7.95 51.44 6.68 51.64 7.32 52.69 L5.63 50.69
								 L4.35 50.69 L3.5 51.19 C1.78 51.29 2.51 47.68 0.11 49.19 A1.20585 1.20585 -180 0 0 0.53 50.69 L0.53
								 50.19 L1.81 51.19 a0.328076 0.328076 -180 1 0 0.424435 0.500391 L3.5 52.69 L4.35 53.19 C3.24 52.57
								 3.86 51.2 4.78 51.19 C5.13 51.19 5.53 51.39 5.63 51.69 C5.72 51.99 5.51 52.4 5.63 52.69 C5.76 53.02
								 6.35 53.2 6.05 53.69 L6.05 56.19 a0.84027 0.84027 0 0 1 7.10543E-15 1.50117 L5.63 57.69 A3.38257
								 3.38257 0 0 1 4.35 60.2 C4.87 61 4.08 60.56 3.93 60.7 C3.85 60.77 3.95 61.02 3.93 61.2 C3.9 61.43
								 3.64 61.54 3.5 61.7 C2.93 62.37 4.34 63.97 4.35 64.2 L3.93 64.2 A1.99776 1.99776 -180 0 0 3.93 66.7
								 L3.5 66.7 L5.2 69.7 L8.17 76.21 L11.99 79.21 L13.27 83.21 L13.27 84.21 A14.3795 14.3795 0 0 1 13.27
								 91.22 a0.84027 0.84027 0 0 1 3.55271E-15 1.50117 A10.0683 10.0683 0 0 1 14.12 99.23 a0.328076 0.328076
								 -180 1 0 -0.424435 0.500391 L14.54 102.23 L14.96 104.23 L14.96 103.73 L15.39 104.23 L15.81 106.73
								 L14.96 106.73 L15.39 108.23 L14.96 109.23 L16.24 109.23 L16.24 111.24 L15.81 110.23 C15.99 110.68
								 15.45 112.59 16.24 112.74 C16.65 112.82 17.44 112.41 17.09 113.24 L17.51 112.74 L17.51 113.24 L17.51
								 114.24 C18.49 113.83 17.41 115.23 18.36 115.24 L18.36 114.74 L20.91 116.74 L20.91 115.24 L21.75
								 115.74 L21.33 116.74 L21.33 117.24 L19.21 115.74 a0.956115 0.956115 -180 0 0 0.84887 1.50117 L22.6
								 117.74 C22.22 118.72 23.42 118.11 23.88 118.24 L25.15 117.74 A5.09561 5.09561 0 0 1 21.75 115.24
								 a0.328076 0.328076 0 1 1 -0.424435 -0.500391 L22.6 114.74 L20.91 113.74 C20.64 113.25 21.15 113.05
								 21.33 112.74 C21.81 111.92 20.18 110.33 22.6 110.23 L21.75 109.73 L21.33 109.73 a0.76167 0.76167
								 0 0 1 -0.84887 -1.00078 C19.27 106.74 21.91 108.59 21.33 107.23 A1.20585 1.20585 0 0 1 21.75 105.73
								 ZM21.75 105.73 a0.800051 0.800051 -180 1 0 1.06581E-14 -1.50117 a0.84027 0.84027 -180 0 0 -3.19744E-14
								 1.50117 ZM19.21 50.19 L19.21 49.19 a0.504561 0.504561 -180 1 0 -2.13163E-14 1.00078 ZM27.7 114.49
								 L28.12 114.74 L28.97 114.24 L28.55 114.24 L27.7 114.24 L27.7 114.49 ZM27.7 114.49 L27.27 114.24
								 L27.7 114.74 L27.7 114.49 ZM14.96 106.23 L15.39 106.23 A1.26188 1.26188 -180 0 0 14.54 104.23 L14.96
								 106.23 Z" class="st2"/>
				</g>
				<g id="shape82-95" v:mID="82" v:groupContext="shape" transform="translate(92.6691,-21.0839)">
					<title>Sheet.82</title>
					<path d="M34.38 38.75 L33.95 38.25 L33.53 36.74 a0.831174 0.831174 -180 0 0 0.424435 -1.50117 C35.23 35.43 34.65
								 34.29 34.83 33.7 C35.08 32.87 36.89 33.21 37.35 33.74 L36.5 34.24 a0.76167 0.76167 0 0 1 0.84887
								 1.00078 L39.05 34.74 L39.9 34.74 L42.02 36.24 A1.65468 1.65468 0 0 1 43.29 37.75 L43.29 38.25 C42.48
								 38.68 41.25 39.09 40.32 38.75 C39.73 38.52 39.26 37.99 38.62 37.75 C38.21 37.59 37.73 37.56 37.35
								 37.75 C36.87 37.99 36.56 38.59 36.08 38.75 C35.57 38.91 34.88 38.58 34.38 38.75 ZM33.95 43.25 L34.38
								 43.25 L33.95 43.25 ZM65.79 58.26 L66.64 57.76 L66.64 58.26 L65.79 58.26 ZM110.35 10.72 L111.63 11.73
								 L111.2 11.73 L109.93 11.22 a0.328076 0.328076 -180 0 0 0.424435 -0.500391 ZM56.87 11.73 L57.3 11.73
								 L58.57 12.73 L58.15 13.23 A1.34704 1.34704 0 0 1 56.03 13.23 A1.00094 1.00094 -180 0 0 56.87 11.73
								 ZM55.6 9.22 C57.28 9.6 55.74 11.15 56.87 11.73 L56.45 11.73 L55.6 9.22 ZM7.64 38.25 L7.64 38.75
								 L6.79 40.75 L7.22 41.25 L7.22 43.25 L8.91 42.75 L9.76 44.25 A1.53834 1.53834 0 0 1 11.88 43.25 L14.01
								 41.25 L13.16 40.25 C13.22 37.97 17.5 39.46 16.13 36.74 L16.55 36.24 A4.11872 4.11872 -180 0 0 19.52
								 35.74 a0.646054 0.646054 0 0 1 1.27331 -4.26326E-14 L21.65 37.75 L22.5 38.25 A3.62604 3.62604 0
								 0 1 25.47 40.75 a0.328076 0.328076 -180 1 0 0.424435 -0.500391 L25.47 40.25 L25.89 39.25 L26.74
								 39.75 L25.04 38.25 L24.19 37.75 C24.82 36.13 22.93 36.14 22.5 35.24 C22.36 34.96 22.36 34.59 22.5
								 34.24 C22.58 34.02 22.73 33.8 22.92 33.74 C23.36 33.61 24.05 34.28 23.77 34.74 L24.19 34.24 A1.20585
								 1.20585 0 0 1 24.62 35.74 A3.2863 3.2863 0 0 1 27.59 39.75 L28.01 40.25 L29.29 41.25 L30.13 41.25
								 L30.98 42.75 L30.98 41.75 L31.41 41.75 L30.13 39.75 L30.13 39.25 L30.56 39.75 a0.687279 0.687279
								 0 1 1 1.27331 -0.500391 C32.26 39.3 32.53 39.3 32.84 39.18 C33.52 38.93 34.36 38.13 34.8 39.25 L34.38
								 39.25 L34.8 39.75 L33.11 39.75 C32.45 38.9 32.04 39.96 32.26 40.25 C32.56 40.66 34.15 39.46 33.53
								 41.25 L33.11 41.25 A1.20585 1.20585 0 0 1 33.53 42.75 L33.95 42.75 L33.53 43.25 L33.95 43.25 L35.23
								 43.75 L36.5 43.25 L37.35 44.25 L37.77 43.75 L39.05 43.25 L39.47 43.75 L39.9 43.25 A12.3512 12.3512
								 0 0 1 39.05 48.75 L39.05 49.25 L37.77 49.25 C37.65 49.1 37.05 49.41 36.93 49.25 C36.79 49.08 37.21
								 48.35 36.5 48.75 C35.55 49.83 34.54 48.92 33.53 48.75 C32.98 48.67 32.44 48.8 31.83 48.75 C30.99
								 48.69 30.02 48.3 30.56 47.25 L29.71 47.25 A1.75491 1.75491 -180 0 0 28.01 49.75 L27.59 50.26 L25.04
								 48.75 L25.04 48.25 C24.56 46.73 23.68 47.37 22.5 47.25 C22.11 47.21 21.68 47.09 21.65 46.75 C21.63
								 46.58 21.71 46.35 21.65 46.25 C21.48 45.99 20.3 46.69 20.8 45.75 C23.11 45.23 20.2 43.91 21.65 43.25
								 a0.499729 0.499729 0 0 1 -0.84887 -0.500391 L19.95 43.25 L19.52 43.25 L16.55 43.25 L11.88 44.75
								 L11.46 44.75 C10.07 46.05 10.31 43.85 9.34 44.25 A2.37459 2.37459 0 0 1 7.22 46.75 L6.79 47.25 C6.16
								 47.87 6.48 48.94 6.34 49.79 C6.07 51.55 3.85 52.32 2.97 53.76 L2.55 54.26 A7.18761 7.18761 0 0 1
								 0.42 58.26 L0.42 59.76 A1.20585 1.20585 0 0 1 0.85 61.26 C0.33 62.84 1.88 65.19 0 66.27 A1.35136
								 1.35136 0 0 1 0.42 67.77 a0.956115 0.956115 -180 0 0 0.84887 1.50117 L1.27 70.27 L1.7 70.27 C3.32
								 71.47 1.91 74.2 4.24 74.77 L6.79 76.78 L7.22 77.28 L8.91 76.28 C9.45 76.42 10.08 76.13 10.61 76.28
								 C11.54 76.53 12.15 78.1 13.16 75.78 C13.82 76.01 14.07 75.62 14.47 75.4 C15.48 74.85 17.39 75.38
								 17.4 76.78 L17.4 77.28 L19.95 76.78 a0.328076 0.328076 -180 1 0 0.424435 0.500391 A3.24978 3.24978
								 0 0 1 20.37 80.78 L20.8 80.78 L20.37 81.78 a0.328076 0.328076 0 1 1 -0.424435 0.500391 C21.03 83.04
								 20.33 85.51 21.65 86.28 C21.94 86.46 22.34 86.55 22.5 86.78 C22.73 87.15 22.38 87.85 22.5 88.28
								 L23.77 90.79 L22.92 91.29 L24.19 93.29 A11.2727 11.2727 -180 0 0 22.07 99.79 L22.07 100.29 L24.62
								 104.8 L25.04 110.3 L25.89 111.8 L25.89 112.3 L27.16 116.31 L26.74 116.31 L27.16 117.81 L27.16 117.31
								 L27.59 118.31 L28.01 118.31 C28.84 116.47 30.58 117.63 31.95 117.74 C34.59 117.95 35.86 114.28 36.93
								 112.3 L37.35 111.8 L37.77 109.8 L37.77 108.3 L39.9 107.3 A4.66368 4.66368 -180 0 0 39.9 103.3 L39.9
								 102.8 C39.3 98.33 43.83 100.82 44.57 97.79 L44.57 92.79 L44.14 92.29 L43.29 91.29 L44.14 88.79 A1.94629
								 1.94629 0 0 1 44.57 85.28 L44.57 84.78 A16.4591 16.4591 0 0 1 49.23 78.78 L50.93 75.78 L52.21 70.77
								 a0.84027 0.84027 -180 0 0 -2.84217E-14 -1.50117 C51.91 69.71 51.45 70.13 50.93 70.27 C49.84 70.57
								 48.51 69.66 47.54 70.77 L47.11 70.77 L46.26 69.77 a0.507187 0.507187 -180 0 0 5.68434E-14 -1.00078
								 C47.15 66.07 44.07 66.47 43.29 65.27 C42.74 64.42 43.33 62.77 42.02 62.26 L41.17 58.26 a0.49269
								 0.49269 0 0 1 -0.84887 -0.500391 L40.32 56.26 L37.77 51.26 L37.35 50.26 L39.05 52.76 L39.47 50.76
								 L39.47 52.76 L39.9 52.76 L41.59 56.26 C43.53 56.32 43.39 58.29 43.27 59.82 C43.21 60.63 43.15 61.33
								 44.57 61.26 L45.84 64.27 L45.84 64.77 L46.69 68.77 C47.69 69.37 47.8 68.05 48.39 67.77 C48.73 67.6
								 49.24 67.8 49.66 67.77 C51.05 67.67 51.4 65.06 53.05 65.27 C52.58 64.34 53.7 65.01 53.9 64.77 C54.11
								 64.52 53.39 63.35 54.75 64.27 L55.18 64.27 C54.8 61.98 57.88 64.71 56.87 61.76 L57.3 61.76 C56.7
								 60.3 58.94 59.53 58.99 58.3 C59.05 57.25 57.48 55.85 56.45 56.26 A1.87996 1.87996 0 0 1 56.03 54.26
								 L55.6 54.26 L55.6 54.76 C55.76 57.54 53.88 55.64 53.05 56.26 C52.64 56.57 52.49 57.53 51.78 56.26
								 A1.20585 1.20585 -180 0 0 52.21 54.76 L51.36 55.26 A6.78262 6.78262 -180 0 0 49.66 51.76 L49.23
								 50.76 C49.86 51.02 49.62 50.59 49.66 50.26 C49.74 49.67 50.73 49.4 50.93 50.26 A4.24227 4.24227
								 -180 0 0 53.9 54.26 C54.92 54.84 56.45 52.5 56.45 54.76 L59.85 55.26 L61.54 55.26 L61.97 55.26 A1.69802
								 1.69802 0 0 1 64.51 56.76 L64.94 56.76 L67.06 60.26 L67.91 59.76 L68.33 59.76 L68.33 58.26 L68.76
								 58.26 L69.61 64.77 L70.46 66.27 L72.15 72.27 L73.43 73.77 L73.85 72.27 A2.71955 2.71955 -180 0 0
								 74.7 69.77 A4.93173 4.93173 -180 0 0 74.7 65.77 L75.55 65.27 L75.55 64.77 L76.4 64.27 L78.1 62.26
								 C77.15 60.8 79.08 61.4 79.37 60.76 C79.56 60.36 79.09 59.46 79.37 59.26 C79.72 59.02 81.2 59.83
								 80.22 58.26 A1.07033 1.07033 -180 1 0 82.34 58.26 L84.89 61.76 L85.31 61.76 A2.6202 2.6202 0 0 1
								 85.31 64.77 C86.53 66.68 86.74 64.41 87.43 64.27 C88.08 64.13 89.13 65.79 88.73 66.18 L88.77 66.31
								 L89.56 68.77 C88.09 69.52 91.02 70.79 89.13 71.77 L89.13 72.27 L89.56 73.77 L89.56 72.77 C91.94
								 73.7 90.25 75.89 90.83 77.28 C91.3 78.41 93.28 79.01 93.38 80.28 L94.22 80.28 C92.28 78.87 94.68
								 76.25 92.1 75.27 L90.83 74.27 L90.4 71.77 L89.98 71.77 C89.59 70.37 91.18 69.11 89.98 67.77 L90.83
								 67.77 C89.9 69.7 91.95 68.01 92.1 69.27 C92.44 70.62 94.9 70.52 94.22 72.27 A1.0575 1.0575 -180
								 0 0 95.5 70.77 L95.92 70.77 C98.27 70.11 97.22 67.35 96.77 65.77 L94.22 62.26 A2.13313 2.13313 0
								 0 1 96.77 59.26 L96.77 60.26 L97.2 60.26 L97.2 59.76 L99.32 58.26 L100.17 58.26 A3.42263 3.42263
								 -180 0 0 102.71 56.26 L102.71 55.76 C103.7 55.11 103.51 54.56 103.63 53.85 C103.93 52.17 105.96
								 49.58 102.71 49.75 L103.99 49.25 L103.56 48.75 L103.99 48.75 C102.31 48.03 102.75 45.22 100.59 45.25
								 L101.44 43.75 a0.896981 0.896981 0 0 1 1.27331 -0.500391 L102.71 42.75 L101.02 41.75 L100.59 43.25
								 L100.17 43.25 L98.47 41.25 C97.97 40.31 99.15 41.01 99.32 40.75 C99.38 40.65 99.3 40.42 99.32 40.25
								 C99.38 39.64 100.64 39.67 100.17 38.75 L101.02 39.25 C99.51 40.2 101.45 40.37 101.02 41.25 A2.29886
								 2.29886 0 0 1 103.99 40.25 L103.99 41.75 C106.31 40.64 104.5 42.81 105.68 43.25 L105.26 43.25 L106.11
								 44.25 L105.68 44.75 A1.29211 1.29211 -180 0 0 108.23 44.75 L108.23 44.25 L104.84 39.75 L106.11 39.25
								 A1.99776 1.99776 0 0 1 106.11 36.74 C106.44 35.72 106.81 36.54 107.38 36.74 C107.86 36.91 108.47
								 36.65 108.66 36.24 C108.96 35.57 108.04 34.5 109.5 34.24 A9.32411 9.32411 -180 0 0 105.26 25.24
								 L104.41 25.74 L104.41 25.24 a0.328076 0.328076 -180 0 0 -0.424435 0.500391 A1.2743 1.2743 -180 0
								 0 101.86 24.74 L102.71 23.73 L103.56 20.23 L104.41 20.23 L107.38 20.23 L107.38 19.73 A1.35068 1.35068
								 0 0 1 109.5 21.23 L111.63 20.23 a0.896981 0.896981 0 0 1 -1.27331 -0.500391 A1.35068 1.35068 0 0
								 1 112.48 18.23 L112.48 18.73 A1.02558 1.02558 -180 1 0 113.75 17.23 L114.6 17.23 L114.6 17.73 L115.45
								 18.73 L115.02 19.23 L114.6 21.73 a0.507187 0.507187 -180 0 0 -3.41061E-13 1.00078 L114.17 22.73
								 L115.02 24.23 L119.27 28.74 L119.27 28.24 L119.27 26.74 L119.69 26.74 A1.00094 1.00094 0 0 1 119.69
								 24.74 L118.84 23.73 L119.27 23.23 L116.72 21.73 L116.72 20.23 L116.3 19.73 L117.14 19.23 L118.42
								 19.73 a0.328076 0.328076 0 0 1 0.424435 -0.500391 L120.54 19.73 L120.12 19.23 L121.39 17.73 L121.81
								 17.23 L123.51 17.73 L123.51 17.23 L120.12 15.73 C121.54 16.37 120.83 14.88 120.96 14.23 L120.12
								 14.23 a0.646054 0.646054 0 0 1 1.27331 -1.08358E-13 L126.06 15.73 L125.21 14.23 L126.06 14.23 L126.06
								 13.73 L122.24 13.23 L116.72 11.73 A8.81012 8.81012 -180 0 0 110.35 10.72 L109.5 10.72 L109.5 11.22
								 L105.68 11.22 C104.71 10.9 103.75 10.35 102.71 10.22 C101.73 10.11 100.69 10.37 99.74 10.22 C96.91
								 9.78 94.9 5.67 91.25 8.22 a0.76167 0.76167 -180 0 0 0.84887 1.00078 L89.98 8.72 L89.56 9.22 L87.43
								 8.72 A1.00094 1.00094 0 0 1 88.28 10.22 L85.74 8.72 L85.74 8.22 L84.46 7.72 L81.07 7.22 L81.92 7.72
								 L79.37 7.72 L78.94 7.72 L76.4 7.72 L75.97 7.22 L74.28 7.22 L74.7 7.72 L72.58 7.72 L75.13 6.22 L74.7
								 5.72 C73.77 4.19 71.48 6.07 70.46 5.22 C70.15 4.96 69.95 4.45 69.61 4.22 C68.84 3.72 67.33 4.6 67.06
								 5.22 L67.06 5.72 A11.1499 11.1499 -180 0 0 61.97 6.22 L61.12 6.72 L61.97 7.22 L59 7.72 L59.42 8.22
								 L60.69 8.72 L60.27 8.72 L57.3 8.22 L56.87 8.72 L59 10.22 L56.87 9.22 L56.45 8.22 L55.6 9.22 L55.18
								 9.22 A1.00094 1.00094 -180 0 0 54.33 7.72 L53.05 7.72 C50.93 8.82 53.22 9.89 52.63 11.22 L54.75
								 11.73 L54.33 12.23 L48.39 10.22 L48.39 10.72 L50.08 11.73 L49.23 11.73 L49.66 12.23 L48.81 11.73
								 L46.69 11.73 L46.69 12.23 L45.84 11.73 L43.29 12.73 L43.29 13.23 L42.87 13.23 L41.17 12.73 L42.02
								 12.73 L41.59 12.23 L39.9 11.73 C41.57 11.7 40.08 13.28 41.17 13.73 L40.75 13.73 L38.62 14.23 L39.47
								 15.73 L36.93 14.73 L36.5 14.73 L37.77 16.23 C37.21 16.27 35.99 16.26 35.65 15.73 C35.13 14.89 36.78
								 12.75 33.95 13.23 A7.47753 7.47753 -180 0 0 39.47 13.23 L39.05 12.73 L33.95 10.72 A1.74271 1.74271
								 0 0 1 31.41 10.72 L33.11 10.22 A1.2743 1.2743 0 0 1 30.98 9.22 L30.56 10.22 L29.71 10.22 L29.71
								 9.22 C29.94 10.8 28.7 10 28 10.23 C27.7 10.32 27.5 10.6 27.2 10.71 C26.52 10.97 25.33 10.37 25.12
								 11.2 C25.08 11.39 25.08 11.64 24.98 11.74 C24.8 11.93 24.27 11.6 24.62 11.22 L23.77 11.73 L24.62
								 12.23 A7.54309 7.54309 -180 0 0 20.8 16.73 L20.37 16.23 L19.95 17.23 L19.52 17.23 L18.25 18.23 L18.25
								 20.23 C16.74 23.06 21.39 21.59 21.22 20.23 L21.65 20.23 L22.5 23.23 C22.06 24.02 23.31 24.61 23.77
								 24.23 C24.23 23.86 23.89 22.54 25.04 23.23 A3.43582 3.43582 0 0 1 26.31 20.23 L25.89 20.23 L26.31
								 19.73 A1.68054 1.68054 0 0 1 25.47 17.73 C28.99 18.51 26.31 12.92 29.29 14.23 a0.499729 0.499729
								 0 0 1 0.84887 0.500391 L28.01 17.23 L27.59 17.23 C28.37 17.64 27.8 18.69 28.01 19.23 C28.41 20.26
								 31.6 19.47 31.83 19.23 L32.26 19.23 L33.11 19.73 C32.43 20.82 31.77 19.85 30.98 19.73 C30.02 19.58
								 28.86 20.69 29.71 21.73 L30.13 21.73 L30.13 22.73 L29.71 22.73 C29.08 22.06 28.5 22.05 28.19 22.37
								 C27.62 22.98 28.06 24.74 26.74 25.24 L26.31 24.74 L23.77 25.74 L22.92 25.24 L23.77 25.24 A1.17024
								 1.17024 -180 0 0 21.65 25.74 C22.04 25.04 21.01 25.06 20.8 24.74 C20.55 24.36 21.44 23.51 21.65
								 23.23 L21.22 23.23 L21.22 22.23 C20.75 22.34 19.66 23.11 19.95 23.7 C20.1 24.03 20.66 24.3 20.37
								 24.74 L19.95 25.74 L19.52 25.74 L18.25 26.74 C18.81 27.58 16.84 27.58 17.4 26.74 L16.55 28.24 L16.13
								 28.74 L16.13 28.24 C15.9 29.21 14.24 29.23 14.43 30.24 L13.16 30.24 L13.16 29.74 L12.73 29.74 L13.16
								 30.74 L12.31 30.74 L11.88 30.74 a0.49269 0.49269 -180 1 0 -0.84887 0.500391 L13.16 33.24 L13.16
								 33.74 L12.73 35.74 a0.328076 0.328076 0 0 1 -0.424435 0.500391 L11.04 36.24 L8.49 35.74 L7.22 36.74
								 L7.64 38.25 ZM29.71 41.25 A1.54133 1.54133 -180 0 0 30.13 43.75 L30.13 43.25 L30.56 43.75 L30.13
								 42.75 L30.56 42.75 L29.71 41.25 ZM39.47 34.24 L39.05 34.24 L37.77 33.74 L39.9 32.74 L41.17 32.74
								 L39.9 33.24 L40.32 33.24 L39.9 34.24 L39.47 34.24 ZM75.97 7.22 a0.896981 0.896981 -180 0 0 -1.27331
								 -0.500391 L75.97 7.22 ZM32.26 39.75 L33.11 39.25 L32.89 39.25 L32.26 39.75 ZM109.08 71.27 L109.08
								 70.27 L108.66 70.77 C109 68.84 107.2 70.54 106.96 69.27 L106.96 70.77 L108.23 70.77 a0.49269 0.49269
								 0 1 1 -0.84887 0.500391 L108.23 72.27 L109.08 71.27 ZM109.08 71.27 L109.08 71.77 L109.5 71.77 L109.5
								 71.27 L109.08 71.27 ZM109.5 71.27 a0.507187 0.507187 -180 0 0 5.68434E-14 -1.00078 L109.5 71.27
								 ZM109.5 70.27 L109.93 70.27 L109.93 69.27 a0.49269 0.49269 -180 1 0 -0.84887 -0.500391 L109.5 69.77
								 a0.328076 0.328076 -180 0 0 -0.424435 0.500391 L109.5 70.27 ZM112.48 46.25 a0.873572 0.873572 -180
								 1 0 1.27331 -1.00078 a0.976065 0.976065 -180 0 0 1.27331 -0.500391 L115.45 45.25 L115.45 44.75 L115.87
								 45.25 L116.3 44.25 L115.45 41.75 a0.328076 0.328076 0 1 1 0.424435 -0.500391 L115.45 40.75 L114.17
								 38.75 L113.75 38.75 L114.17 42.75 L113.32 43.25 a0.49269 0.49269 -180 1 0 -0.84887 -0.500391 L112.48
								 44.25 L112.48 44.75 L112.05 44.25 C111.64 43.98 108.35 45.37 109.93 46.25 a0.547394 0.547394 -180
								 1 0 -0.424435 1.00078 L109.5 46.75 L109.93 47.25 L109.93 49.25 L110.78 48.75 C111.99 47.7 109.37
								 46.49 110.78 45.75 L112.05 45.25 L112.48 45.25 L112.48 46.25 ZM112.48 46.25 L111.63 45.75 L112.05
								 46.75 L112.48 46.25 ZM111.63 46.25 L111.2 45.75 a0.786807 0.786807 -180 0 0 0.424435 1.50117 L111.63
								 46.25 ZM46.26 107.3 L46.69 108.3 L47.11 108.3 L48.81 107.8 L49.23 107.8 A38.0875 38.0875 -180 0
								 0 51.36 97.79 L51.36 98.29 L51.78 97.79 L51.36 94.79 L50.93 94.29 L50.51 95.79 A1.20585 1.20585
								 -180 0 0 50.08 97.29 L47.11 98.29 C45.99 99.68 47.45 101.4 47.11 102.8 C46.77 104.24 44.53 105.34
								 46.26 107.3 ZM54.75 69.27 L55.18 68.77 L54.33 68.77 L54.75 69.27 ZM22.5 42.75 L24.62 43.25 L25.04
								 41.25 A2.14682 2.14682 0 0 1 22.92 41.75 L22.5 41.75 L22.5 42.75 ZM31.83 45.25 L33.11 45.25 L33.11
								 44.75 L30.98 44.25 a0.76167 0.76167 -180 0 0 0.84887 1.00078 ZM37.35 45.25 L37.77 45.25 C39.36 46.03
								 38.04 44.43 39.05 44.25 L36.93 45.25 L37.35 45.25 ZM0.85 52.76 L1.27 51.76 L0.85 51.76 L0.85 52.76
								 ZM3.82 51.26 a0.49269 0.49269 -180 1 0 -0.84887 0.500391 L2.55 52.76 L3.82 51.26 ZM50.93 38.25 L51.36
								 38.75 L51.36 38.25 a0.602347 0.602347 0 1 1 -1.63425E-13 1.00078 a0.328076 0.328076 -180 0 0 0.424435
								 0.500391 L52.63 42.75 L52.63 43.25 A2.02382 2.02382 0 0 1 49.23 41.25 L48.81 40.75 L49.23 40.75
								 A1.20585 1.20585 0 0 1 49.66 39.25 L48.39 38.25 C46.18 38.03 47.48 36.62 47.11 35.74 C46.82 35.04
								 45.44 34.67 46.69 33.74 L47.54 33.24 L49.23 32.74 A2.45648 2.45648 0 0 1 51.78 34.24 L50.08 34.24
								 a0.507187 0.507187 -180 0 0 -3.55271E-14 1.00078 L49.66 35.24 L50.51 36.74 L50.93 36.74 L50.93 37.75
								 L50.93 38.25 ZM118.84 29.74 a0.507187 0.507187 -180 0 0 4.26326E-14 -1.00078 L118.84 29.74 ZM117.14
								 34.24 L116.72 34.24 L116.3 35.24 L117.14 34.24 ZM113.32 38.75 L113.75 38.25 L113.32 36.74 L113.75
								 37.75 L114.17 36.74 L115.02 37.75 L115.45 36.74 L116.3 36.24 a0.735605 0.735605 0 0 1 -0.84887 -1.00078
								 L115.02 35.74 L114.6 35.24 L112.05 34.24 L112.48 34.74 L113.32 36.24 a0.49269 0.49269 -180 0 0 -0.84887
								 0.500391 L113.32 38.75 ZM75.13 75.27 L75.97 75.27 L76.4 75.27 A4.61545 4.61545 -180 0 0 75.55 71.77
								 L75.13 71.27 L75.13 71.77 A3.76019 3.76019 -180 0 0 75.13 75.27 ZM69.18 49.25 L68.33 48.25 L68.76
								 48.25 L69.18 49.25 ZM97.62 82.28 L98.47 82.78 L98.89 84.78 L99.74 84.78 L99.74 85.28 L101.02 85.28
								 L101.44 85.28 L101.86 86.28 A1.8824 1.8824 -180 0 0 103.56 83.78 L103.99 82.78 L104.84 80.78 L105.26
								 80.78 C103.17 80.44 105.08 79.4 104.84 78.78 C104.77 78.61 104.54 78.47 104.41 78.28 C104.02 77.71
								 104.51 76.7 105.26 76.78 L104.84 76.78 L105.68 76.28 L104.41 75.78 L103.99 74.77 L102.71 76.28 L102.71
								 76.78 A1.49313 1.49313 -180 0 0 100.59 78.28 L99.74 78.28 L99.32 80.28 C98.21 78.59 96.99 81.51
								 97.62 82.28 ZM96.35 62.26 L96.77 62.26 A1.00094 1.00094 -180 0 0 97.62 60.76 a0.984256 0.984256
								 -180 0 0 -1.27331 1.50117 ZM104.84 58.26 L105.26 58.26 L105.26 55.26 A2.18185 2.18185 -180 0 0 104.84
								 58.26 ZM95.41 84.98 L95.92 85.28 L95.92 84.78 L95.5 83.78 a0.49269 0.49269 -180 1 0 -0.84887 -0.500391
								 L95.07 83.78 L94.65 83.78 L94.22 82.78 C93.97 82.98 93.29 82.59 93.38 82.28 C93.43 82.09 93.77 81.94
								 93.8 81.78 C93.85 81.5 92.93 81.23 93.38 80.78 L91.68 79.78 L91.25 79.78 L88.71 76.28 L87.01 75.78
								 C86.47 76.93 87.62 77.19 88.28 77.78 C88.61 78.07 88.82 78.45 89.13 78.78 C89.45 79.11 89.87 79.38
								 89.98 79.78 C90.11 80.23 89.83 80.84 89.98 81.28 C90.11 81.67 90.56 81.93 90.83 82.28 C91.46 83.11
								 91.04 84.45 91.68 85.28 L94.22 87.28 L94.22 87.78 L94.65 87.28 L95.07 87.78 L95.5 85.28 L95.41 84.98
								 ZM109.93 90.29 L109.5 90.29 L109.5 90.79 L109.93 90.29 ZM110.78 90.29 L111.2 89.29 L110.78 89.29
								 L110.35 90.29 L110.78 90.29 ZM106.11 92.29 L106.53 92.29 L105.68 91.79 L105.26 91.79 L106.11 92.29
								 ZM109.08 81.28 a0.879578 0.879578 -180 0 0 1.27331 -1.00078 L108.66 80.78 L106.96 80.28 L106.11
								 80.78 L106.11 81.78 L106.53 81.28 L109.08 81.28 ZM105.68 85.28 L105.68 85.78 L105.68 87.28 L106.11
								 87.28 L106.11 85.28 L106.96 84.78 L106.53 85.28 L107.38 86.28 C106.91 87.2 108.01 86.55 108.23 86.78
								 C108.39 86.96 108.07 87.61 108.23 87.78 L108.66 86.78 L107.38 85.28 L108.23 85.28 L107.38 83.28
								 L108.66 82.78 L109.08 82.78 L108.66 82.28 L106.53 82.78 L106.11 82.28 L105.26 84.78 a0.328076 0.328076
								 -180 0 0 0.424435 0.500391 ZM111.2 85.78 C112.11 86.29 111.61 84.21 110.78 85.28 L111.2 85.78 ZM112.48
								 83.28 L112.05 82.78 L111.63 83.28 L112.48 83.28 ZM105.26 66.27 a0.656153 0.656153 0 0 1 0.84887
								 1.00078 L106.53 67.27 L107.38 67.77 L107.38 67.27 L109.08 67.77 L108.66 67.27 L107.38 66.77 L106.96
								 67.27 L106.96 66.77 A1.99776 1.99776 0 0 1 106.96 64.27 L106.53 63.77 a0.984229 0.984229 -180 0
								 0 -1.27331 -1.50117 L105.68 64.77 L105.26 64.77 L105.26 66.27 ZM105.68 70.77 L105.26 70.27 L105.26
								 70.77 L103.99 72.77 L105.68 70.77 ZM106.53 69.27 L106.53 68.77 A1.00094 1.00094 -180 0 0 105.68
								 67.27 L106.53 69.27 ZM109.5 92.29 A1.68209 1.68209 0 0 1 111.63 90.79 A2.2952 2.2952 -180 0 0 108.66
								 92.29 L109.5 92.29 ZM109.08 73.77 L109.08 72.77 L108.66 72.77 L107.38 73.77 L107.38 74.77 L108.23
								 73.77 L108.23 74.27 L109.08 73.77 ZM109.08 73.77 a0.84027 0.84027 0 0 1 -8.3844E-13 1.50117 L110.35
								 75.78 L110.35 74.27 L110.78 75.27 A3.00095 3.00095 -180 0 0 109.93 71.27 L110.35 72.27 L109.5 72.27
								 L109.5 72.77 L109.08 73.77 ZM105.68 90.79 L104.41 90.29 L104.41 90.79 a0.891261 0.891261 -180 0
								 0 -1.69774 0.500391 L105.68 90.79 ZM105.68 90.79 A3.13027 3.13027 -180 0 0 109.08 90.79 C108.1 89.08
								 107.22 92.21 106.11 90.29 L105.68 90.79 ZM101.44 90.29 L101.44 89.29 a0.896981 0.896981 0 0 1 -1.27331
								 -0.500391 L98.89 88.28 L98.89 88.79 C97.22 90.14 97.21 88.17 96.35 87.78 C95.82 87.55 94.98 87.91
								 94.65 88.28 L96.77 89.29 L97.62 89.29 L100.17 90.79 a0.646054 0.646054 0 0 1 1.27331 0 L101.44 90.29
								 ZM101.44 90.29 a0.646054 0.646054 -180 0 0 1.27331 -4.26326E-14 L101.44 90.29 ZM25.47 40.75 L25.04
								 41.75 L25.47 41.75 L25.47 40.75 ZM25.04 38.25 L25.47 38.25 L25.04 38.25 ZM14.86 26.74 L14.43 26.74
								 L14.86 26.74 ZM11.88 24.74 C12.94 24.47 13.2 26.55 12.31 26.73 C12.01 26.79 11.58 26.64 11.47 26.76
								 C11.41 26.84 11.46 27 11.42 27.17 C11.32 27.72 10.44 28.31 11.46 28.24 L10.61 29.24 L11.04 29.24
								 a0.896981 0.896981 -180 0 0 1.27331 -0.500391 L12.73 29.24 L14.86 28.74 L15.28 28.24 L14.86 28.24
								 L15.7 27.24 L14.86 26.74 L14.43 25.24 A1.88547 1.88547 -180 0 0 12.31 23.73 L13.16 22.23 L11.88
								 22.23 a0.76167 0.76167 -180 0 0 0.84887 -1.00078 A1.07033 1.07033 -180 0 0 11.04 22.23 L10.61 23.23
								 a0.558437 0.558437 0 0 1 0.424435 1.00078 L11.46 23.73 L11.04 24.74 L11.88 24.74 ZM11.88 24.74 L12.31
								 24.74 L11.88 24.74 ZM11.04 23.73 L10.61 23.73 L11.04 23.73 ZM18.25 33.24 L18.25 33.74 L18.25 33.24
								 ZM9.76 24.23 L8.91 24.74 L9.34 24.74 L8.49 25.24 L7.64 25.24 L8.49 25.74 L7.64 25.74 L8.91 26.74
								 L7.64 27.74 L7.22 27.74 L7.64 28.24 L10.19 27.74 C10.86 26.93 10.54 26.2 10.61 25.24 C10.66 24.55
								 10.9 23.73 9.76 24.23 ZM11.88 28.24 L12.31 28.24 L11.88 28.24 ZM16.13 40.75 L15.7 39.75 L15.28 40.25
								 L16.13 40.75 ZM21.65 23.73 L21.65 24.23 L22.5 23.73 L21.65 23.73 ZM20.37 38.75 L20.37 36.74 L19.95
								 36.74 L19.95 38.25 L20.37 38.75 ZM20.37 38.75 L19.52 38.75 L19.95 40.75 L20.8 40.75 L20.8 39.25
								 L20.37 38.75 ZM25.04 11.73 L25.47 11.73 L25.04 11.73 Z" class="st2"/>
				</g>
				<g id="shape83-97" v:mID="83" v:groupContext="shape" transform="translate(1.21503E-12,-68.8542)">
					<title>Sheet.83</title>
					<path d="M61.59 82.01 L62.11 82.01 A1.52334 1.52334 -180 0 0 61.59 82.01 ZM61.59 82.01 L62.11 82.01 A1.52334
								 1.52334 -180 0 0 61.59 82.01 ZM61.59 82.01 L62.11 82.01 A1.52334 1.52334 -180 0 0 61.59 82.01 ZM49.38
								 108.53 C49.57 107.67 48.72 108.2 48.53 108.03 C48.29 107.83 49.09 106.55 47.68 107.53 A3.28064 3.28064
								 -180 0 0 41.74 107.03 L42.16 107.03 L43.43 106.03 L43.86 106.03 A4.32802 4.32802 0 0 1 46.83 108.03
								 L47.25 108.03 L46.83 108.53 L49.38 108.53 ZM46.83 111.04 C47.69 111.83 48.06 110.38 47.68 110.03
								 C47.33 109.72 46.33 110.35 45.98 110.03 L46.83 111.04 ZM55.32 110.03 C54.01 109.06 54.01 112.01
								 55.32 111.04 L55.74 110.03 L55.32 110.03 ZM48.15 83.48 a0.328076 0.328076 -180 0 0 -0.0469693 0.0332249
								 A1.20585 1.20585 -180 0 0 48.15 83.48 ZM48.15 83.48 a0.328076 0.328076 -180 0 0 -0.0469693 0.0332249
								 A1.20585 1.20585 -180 0 0 48.15 83.48 ZM48.15 83.48 a0.328076 0.328076 -180 0 0 -0.0469693 0.0332249
								 A1.20585 1.20585 -180 0 0 48.15 83.48 ZM54.47 82.51 C54.05 82.54 53.8 82.74 53.62 83.01 C53.89 82.81
								 54.17 82.6 54.47 82.51 ZM45.26 78.95 L45.13 79.01 L45.56 79.01 L45.26 78.95 ZM47.83 85.66 A2.69094
								 2.69094 -180 0 0 47.68 86.02 L47.83 85.66 ZM51.21 84.1 C51.16 84.07 51.12 84.05 51.07 84.01 L51.5
								 84.52 a0.896981 0.896981 -180 0 0 -0.290684 -0.412324 ZM56.59 86.02 L57.02 86.02 L57.02 85.52 L56.59
								 86.02 ZM68.16 71.88 a0.49269 0.49269 -180 0 0 -0.108342 0.127731 L68.16 71.88 ZM68.16 71.88 a0.49269
								 0.49269 -180 0 0 -0.108342 0.127731 L68.16 71.88 ZM68.16 71.88 a0.49269 0.49269 -180 0 0 -0.108342
								 0.127731 L68.16 71.88 ZM69.31 72.76 a0.49269 0.49269 -180 0 0 -0.411063 0.242313 L69.31 72.76 ZM69.31
								 72.76 a0.49269 0.49269 -180 0 0 -0.411063 0.242313 L69.31 72.76 ZM69.31 72.76 a0.49269 0.49269 -180
								 0 0 -0.411063 0.242313 L69.31 72.76 ZM45.05 79.11 L45.26 79.15 L47.25 78.21 C49.01 77.83 47.18 80.11
								 48.95 79.21 L48.56 81.05 a0.328076 0.328076 -180 0 0 -0.0346837 -0.0341542 a0.328076 0.328076 -180
								 0 0 -0.424435 -2.84217E-13 L46.83 81.01 L46.83 80.51 L45.56 81.01 L46.83 80.01 L44.28 81.01 L44.28
								 80.51 L43.43 81.01 L45.05 79.11 ZM22.64 80.01 C24.14 79.41 22.03 77.65 21.79 79.01 A11.0032 11.0032
								 0 0 1 18.82 84.52 L17.97 87.52 C18.43 87.98 17.47 88.23 17.54 88.52 C17.58 88.68 17.95 88.85 17.97
								 89.02 C17.98 89.18 17.65 89.34 17.54 89.52 C17.37 89.81 17.84 90.16 17.97 90.52 C18.08 90.85 17.91
								 91.19 17.97 91.52 C18.07 92.09 18.87 92.63 17.97 93.02 L19.24 93.52 L19.67 95.02 L19.67 98.53 A1.14527
								 1.14527 0 0 1 20.09 100.53 L21.79 102.03 L21.79 102.53 L20.94 103.53 A1.75491 1.75491 0 0 1 22.64
								 106.03 L23.06 105.53 L22.21 102.03 L20.52 98.03 A1.17754 1.17754 0 0 1 22.21 96.52 L22.21 97.02
								 A11.1562 11.1562 -180 0 0 23.91 102.03 L23.49 102.53 L24.34 103.03 L25.61 106.03 L26.46 107.03 L25.18
								 108.03 L25.61 108.53 A3.57059 3.57059 -180 0 0 28.15 111.04 L28.58 111.54 A4.81222 4.81222 -180
								 0 0 33.67 112.54 L34.95 114.04 L34.95 114.54 L38.34 115.54 L38.34 115.04 C39 115.37 38.74 115.97
								 38.77 116.54 C38.82 117.73 40.1 118.83 41.31 118.04 L42.16 114.54 C43.04 112.31 39.08 113.3 38.34
								 113.04 L37.49 112.54 L38.34 110.03 L38.77 111.04 L38.77 110.03 L40.04 107.03 L39.19 107.03 C36.27
								 106.11 38.31 109.94 35.79 109.53 L36.22 110.03 L35.37 110.03 A1.79396 1.79396 0 0 1 32.82 109.03
								 C31.86 107.26 31.71 105.81 32.4 104.03 C32.61 103.49 32.89 102.92 32.82 102.53 L33.25 100.53 L35.37
								 98.53 L37.49 98.53 L37.92 98.03 C37.1 99.75 38.97 98.77 39.61 99.03 C38.86 98.73 39.24 98.33 39.61
								 98.03 C40.38 97.41 41.12 97.22 42.16 97.53 L42.59 98.53 a0.885289 0.885289 0 0 1 1.69774 0.500391
								 L44.71 103.03 a0.956115 0.956115 -180 0 0 0.84887 -1.50117 A6.17468 6.17468 0 0 1 46.83 95.02 L51.07
								 92.52 C52.54 91.78 49.61 90.5 51.5 89.52 A1.00094 1.00094 -180 0 0 52.35 88.02 L52.77 88.52 L53.62
								 87.02 L55.74 86.52 L55.74 86.02 L56.59 86.02 L56.59 85.52 C56.49 84.24 57.48 83.06 58.71 83.01 C59.35
								 82.99 60.06 83.27 60 82.21 L61.59 82.21 A1.52334 1.52334 0 0 1 62.11 82.21 L61.59 82.21 A1.52334
								 1.52334 -180 0 0 60.41 84.21 L64.23 82.21 A1.0562 1.0562 -180 0 0 65.08 80.71 C64.78 81.76 63.87
								 81.97 62.96 81.71 C62.23 81.5 61.5 80.99 62.53 80.21 L62.11 80.21 L61.26 79.21 L63.38 78.71 L62.96
								 78.21 A5.10504 5.10504 -180 0 0 57.87 80.71 A4.10433 4.10433 0 0 1 60.84 78.21 L61.26 78.21 C62.23
								 75.89 65.1 78.05 66.8 77.23 C67.88 76.71 68.49 74.99 70.17 75.71 L70.17 73.7 L69.75 73.7 a0.49269
								 0.49269 -180 0 0 -0.437808 -0.742703 L68.9 73.2 a0.49269 0.49269 0 0 1 0.411063 -0.242313 L69.75
								 72.7 L68.9 72.7 a0.49269 0.49269 -180 0 0 -0.740528 -0.628122 L68.05 72.2 a0.49269 0.49269 0 0 1
								 0.108342 -0.127731 L68.48 71.7 L67.63 71.2 L68.48 70.7 L67.63 67.2 a0.76167 0.76167 -180 0 0 -0.84887
								 1.00078 L64.66 69.7 A2.86694 2.86694 0 0 1 64.66 66.7 L63.81 66.7 a0.76167 0.76167 -180 0 0 -0.84887
								 -1.00078 L60.84 65.2 C59.1 65.75 59.56 68.15 58.29 69.2 L58.71 69.7 A3.17386 3.17386 0 0 1 55.32
								 72.7 L54.89 75.71 C53 77.94 51.63 72.9 54.05 72.7 L49.38 70.7 L48.53 70.7 L48.95 69.2 a0.656153
								 0.656153 0 0 1 -0.84887 -1.00078 L51.5 65.7 L51.5 65.2 C53.52 66.78 53.26 63.44 54.89 64.2 L57.87
								 61.69 L59.14 61.69 L60.84 61.19 L61.26 60.69 L60.84 60.69 L62.53 59.19 L62.11 59.19 L60.41 58.69
								 A3.57059 3.57059 0 0 1 57.87 61.19 L57.87 60.69 L58.29 59.69 L58.29 59.19 a0.925903 0.925903 0 0
								 1 -1.69774 -0.500391 L57.44 58.69 L57.02 56.69 a0.49269 0.49269 -180 0 0 0.84887 -0.500391 L58.71
								 56.19 L60.41 55.19 C57.91 54.64 56.45 57.3 54.47 58.19 a0.76167 0.76167 -180 0 0 0.84887 1.00078
								 L53.2 60.69 L52.77 60.69 C53.17 59.96 54.94 59.63 53.62 58.69 L51.5 59.69 L52.77 59.69 A3.04064
								 3.04064 0 0 1 48.53 60.19 L48.53 59.69 L45.98 60.19 L46.83 60.19 C46.24 61.33 45.72 60.39 45.13
								 60.19 C44.23 59.89 43.16 61.36 42.16 60.69 L43.43 60.19 L43.43 59.69 L41.31 59.19 C40.92 58.76 40.19
								 58.51 39.61 58.69 C38.91 58.92 38.44 59.82 37.49 59.19 a0.507187 0.507187 -180 0 0 -6.39488E-14
								 -1.00078 L33.25 59.19 L31.55 59.69 L29.48 59.2 L29.71 59 L28.86 58.49 L24.62 57.99 L23.34 57.99
								 L23.34 56.99 L22.92 56.99 C19.9 56.98 17.53 60.13 14.43 59.5 C13.3 59.83 14.43 60.16 14.43 60.5
								 C14.43 60.83 13.3 61.16 14.43 61.5 L12.73 61.5 L9.76 62 a0.84027 0.84027 0 0 1 2.84217E-14 1.50117
								 A3.48542 3.48542 -180 0 0 13.16 62.5 C12.44 66.52 6.04 63.35 5.94 67.5 L7.64 67.5 L6.37 69 L8.91
								 69 L8.06 70 L0 73.01 L5.52 71.5 L11.04 69 L11.46 69 C10.87 67.47 12.13 67.94 13.16 68 C14.73 68.09
								 15.73 67.2 16.98 66.5 C17.95 65.96 18.13 67.13 18.68 67.5 C19.32 67.94 20.48 67.28 21.22 67.5 L21.74
								 67.2 L21.79 67.2 L20.94 67.7 A1.74271 1.74271 -180 0 0 23.49 67.7 L23.06 71.2 a0.84027 0.84027 0
								 0 1 0.424435 0.500391 a0.84027 0.84027 0 0 1 -0.424435 1.00078 C22.16 73.47 20.34 72.71 21.79 75.21
								 L22.21 75.21 C20.77 76.49 23.18 77.19 23.49 78.21 L23.49 78.51 L23.06 80.01 L22.64 80.01 ZM51.38
								 84.57 L51.07 84.21 a0.896981 0.896981 -180 0 0 -0.84887 -8.52651E-14 C50.87 83.29 51.94 83.95 52.77
								 83.71 C53.02 83.64 53.24 83.5 53.45 83.34 C53.09 84.2 53.05 85.29 51.21 84.1 a0.896981 0.896981
								 0 0 1 0.290684 0.412324 L51.38 84.57 ZM48.15 83.48 A1.20585 1.20585 0 0 1 48.1 83.51 a0.328076 0.328076
								 0 0 1 0.0469693 -0.0332249 A1.20585 1.20585 -180 0 0 48.53 82.01 L48.1 82.01 A3.99674 3.99674 -180
								 0 0 45.13 85.52 L44.28 86.02 L44.28 85.52 A4.15587 4.15587 0 0 1 45.98 82.51 L45.13 83.01 A2.8023
								 2.8023 0 0 1 48.53 81.51 a0.328076 0.328076 -180 0 0 0.114486 -0.280179 L51.07 81.71 a0.84027 0.84027
								 0 0 1 7.10543E-15 1.50117 L49.8 82.21 L48.95 84.21 L48.53 84.21 L47.83 85.86 A2.69094 2.69094 0
								 0 1 51.3 84.62 L48.53 86.02 L47.68 86.02 L48.53 84.01 a0.328076 0.328076 -180 0 0 -0.377466 -0.533616
								 ZM60.14 81.17 A1.0578 1.0578 0 0 1 59.84 82.01 L59.56 82.01 A1.0578 1.0578 -180 0 0 60.14 81.17
								 ZM20.94 67.5 L20.52 68 L21.79 69.5 L22.21 69.5 L21.79 70.5 L22.64 70 a0.499729 0.499729 0 0 1 -0.84887
								 0.500391 L20.94 71 L21.79 71 L20.94 72.01 L21.79 72.51 L22.21 71 L22.64 71.5 L22.21 71.5 L22.21
								 72.51 L23.06 72.51 C23.35 72.26 23.55 71.85 23.49 71.5 a0.84027 0.84027 -180 0 0 -0.424435 -0.500391
								 L23.49 67.5 A1.74271 1.74271 0 0 1 20.94 67.5 ZM21.79 70.5 a0.499729 0.499729 -180 0 0 0.84887 -0.500391
								 L21.79 70.5 ZM23.49 71.5 C23.55 71.85 23.35 72.26 23.06 72.51 a0.84027 0.84027 -180 0 0 0.424435
								 -1.00078 Z" class="st4"/>
					<path d="M61.59 82.01 L62.11 82.01 A1.52334 1.52334 -180 0 0 61.59 82.01" class="st3"/>
					<path d="M61.59 82.01 L62.11 82.01 A1.52334 1.52334 -180 0 0 61.59 82.01" class="st3"/>
					<path d="M61.59 82.01 L62.11 82.01 A1.52334 1.52334 -180 0 0 61.59 82.01" class="st3"/>
					<path d="M49.38 108.53 C49.57 107.67 48.72 108.2 48.53 108.03 C48.29 107.83 49.09 106.55 47.68 107.53 A3.28064
								 3.28064 -180 0 0 41.74 107.03 L42.16 107.03 L43.43 106.03 L43.86 106.03 A4.32802 4.32802 0 0 1 46.83
								 108.03 L47.25 108.03 L46.83 108.53 L49.38 108.53" class="st3"/>
					<path d="M46.83 111.04 C47.69 111.83 48.06 110.38 47.68 110.03 C47.33 109.72 46.33 110.35 45.98 110.03 L46.83
								 111.04" class="st3"/>
					<path d="M55.32 110.03 C54.01 109.06 54.01 112.01 55.32 111.04 L55.74 110.03 L55.32 110.03" class="st3"/>
					<path d="M48.15 83.48 a0.328076 0.328076 -180 0 0 -0.0469693 0.0332249 A1.20585 1.20585 -180 0 0 48.15 83.48"
							class="st3"/>
					<path d="M48.15 83.48 a0.328076 0.328076 -180 0 0 -0.0469693 0.0332249 A1.20585 1.20585 -180 0 0 48.15 83.48"
							class="st3"/>
					<path d="M48.15 83.48 a0.328076 0.328076 -180 0 0 -0.0469693 0.0332249 A1.20585 1.20585 -180 0 0 48.15 83.48"
							class="st3"/>
					<path d="M54.47 82.51 C54.05 82.54 53.8 82.74 53.62 83.01 C53.89 82.81 54.17 82.6 54.47 82.51" class="st3"/>
					<path d="M48.53 84.01 L48.95 84.01 L49.8 82.01 L51.07 83.01 a0.84027 0.84027 -180 0 0 8.52651E-14 -1.50117 L48.53
								 81.01 a0.328076 0.328076 0 0 1 2.06057E-13 0.500391 A2.8023 2.8023 -180 0 0 45.13 83.01 L45.98 82.51
								 A4.15587 4.15587 -180 0 0 44.28 85.52 L44.28 86.02 L45.13 85.52 A3.99674 3.99674 0 0 1 48.1 82.01
								 L48.53 82.01 A1.20585 1.20585 0 0 1 48.15 83.48 a0.328076 0.328076 0 0 1 0.377466 0.533616"
							class="st3"/>
					<path d="M48.53 81.01 L48.95 79.01 C47.18 79.91 49.01 77.63 47.25 78.01 L45.26 78.95 L45.56 79.01 L45.13 79.01
								 L43.43 81.01 L44.28 80.51 L44.28 81.01 L46.83 80.01 L45.56 81.01 L46.83 80.51 L46.83 81.01 L48.1
								 81.01 a0.328076 0.328076 0 0 1 0.424435 2.70006E-13" class="st3"/>
					<path d="M45.26 78.95 L45.13 79.01 L45.56 79.01 L45.26 78.95" class="st3"/>
					<path d="M47.83 85.66 A2.69094 2.69094 -180 0 0 47.68 86.02 L47.83 85.66" class="st3"/>
					<path d="M51.5 84.52 A2.69094 2.69094 -180 0 0 47.83 85.66 L47.68 86.02 L48.53 86.02 L51.5 84.52" class="st3"/>
					<path d="M53.62 83.01 C53.35 83.22 53.08 83.43 52.77 83.51 C51.94 83.75 50.87 83.09 50.23 84.01 a0.896981 0.896981
								 0 0 1 0.84887 7.10543E-14 C51.12 84.05 51.16 84.07 51.21 84.1 C53.29 85.44 53.06 83.88 53.62 83.01"
							class="st3"/>
					<path d="M51.21 84.1 C51.16 84.07 51.12 84.05 51.07 84.01 L51.5 84.52 a0.896981 0.896981 -180 0 0 -0.290684 -0.412324"
							class="st3"/>
					<path d="M56.59 86.02 L57.02 86.02 L57.02 85.52 L56.59 86.02" class="st3"/>
					<path d="M68.16 71.88 a0.49269 0.49269 -180 0 0 -0.108342 0.127731 L68.16 71.88" class="st3"/>
					<path d="M68.16 71.88 a0.49269 0.49269 -180 0 0 -0.108342 0.127731 L68.16 71.88" class="st3"/>
					<path d="M68.16 71.88 a0.49269 0.49269 -180 0 0 -0.108342 0.127731 L68.16 71.88" class="st3"/>
					<path d="M69.31 72.76 a0.49269 0.49269 -180 0 0 -0.411063 0.242313 L69.31 72.76" class="st3"/>
					<path d="M69.31 72.76 a0.49269 0.49269 -180 0 0 -0.411063 0.242313 L69.31 72.76" class="st3"/>
					<path d="M69.31 72.76 a0.49269 0.49269 -180 0 0 -0.411063 0.242313 L69.31 72.76" class="st3"/>
					<path d="M45.05 79.11 L45.26 79.15 L47.25 78.21 C49.01 77.83 47.18 80.11 48.95 79.21 L48.56 81.05 a0.328076 0.328076
								 -180 0 0 -0.0346837 -0.0341542 a0.328076 0.328076 -180 0 0 -0.424435 -2.84217E-13 L46.83 81.01 L46.83
								 80.51 L45.56 81.01 L46.83 80.01 L44.28 81.01 L44.28 80.51 L43.43 81.01 L45.05 79.11" class="st3"/>
					<path d="M22.64 80.01 C24.14 79.41 22.03 77.65 21.79 79.01 A11.0032 11.0032 0 0 1 18.82 84.52 L17.97 87.52 C18.43
								 87.98 17.47 88.23 17.54 88.52 C17.58 88.68 17.95 88.85 17.97 89.02 C17.98 89.18 17.65 89.34 17.54
								 89.52 C17.37 89.81 17.84 90.16 17.97 90.52 C18.08 90.85 17.91 91.19 17.97 91.52 C18.07 92.09 18.87
								 92.63 17.97 93.02 L19.24 93.52 L19.67 95.02 L19.67 98.53 A1.14527 1.14527 0 0 1 20.09 100.53 L21.79
								 102.03 L21.79 102.53 L20.94 103.53 A1.75491 1.75491 0 0 1 22.64 106.03 L23.06 105.53 L22.21 102.03
								 L20.52 98.03 A1.17754 1.17754 0 0 1 22.21 96.52 L22.21 97.02 A11.1562 11.1562 -180 0 0 23.91 102.03
								 L23.49 102.53 L24.34 103.03 L25.61 106.03 L26.46 107.03 L25.18 108.03 L25.61 108.53 A3.57059 3.57059
								 -180 0 0 28.15 111.04 L28.58 111.54 A4.81222 4.81222 -180 0 0 33.67 112.54 L34.95 114.04 L34.95
								 114.54 L38.34 115.54 L38.34 115.04 C39 115.37 38.74 115.97 38.77 116.54 C38.82 117.73 40.1 118.83
								 41.31 118.04 L42.16 114.54 C43.04 112.31 39.08 113.3 38.34 113.04 L37.49 112.54 L38.34 110.03 L38.77
								 111.04 L38.77 110.03 L40.04 107.03 L39.19 107.03 C36.27 106.11 38.31 109.94 35.79 109.53 L36.22
								 110.03 L35.37 110.03 A1.79396 1.79396 0 0 1 32.82 109.03 C31.86 107.26 31.71 105.81 32.4 104.03
								 C32.61 103.49 32.89 102.92 32.82 102.53 L33.25 100.53 L35.37 98.53 L37.49 98.53 L37.92 98.03 C37.1
								 99.75 38.97 98.77 39.61 99.03 C38.86 98.73 39.24 98.33 39.61 98.03 C40.38 97.41 41.12 97.22 42.16
								 97.53 L42.59 98.53 a0.885289 0.885289 0 0 1 1.69774 0.500391 L44.71 103.03 a0.956115 0.956115 -180
								 0 0 0.84887 -1.50117 A6.17468 6.17468 0 0 1 46.83 95.02 L51.07 92.52 C52.54 91.78 49.61 90.5 51.5
								 89.52 A1.00094 1.00094 -180 0 0 52.35 88.02 L52.77 88.52 L53.62 87.02 L55.74 86.52 L55.74 86.02
								 L56.59 86.02 L56.59 85.52 C56.49 84.24 57.48 83.06 58.71 83.01 C59.35 82.99 60.06 83.27 60 82.21
								 L61.59 82.21 A1.52334 1.52334 0 0 1 62.11 82.21 L61.59 82.21 A1.52334 1.52334 -180 0 0 60.41 84.21
								 L64.23 82.21 A1.0562 1.0562 -180 0 0 65.08 80.71 C64.78 81.76 63.87 81.97 62.96 81.71 C62.23 81.5
								 61.5 80.99 62.53 80.21 L62.11 80.21 L61.26 79.21 L63.38 78.71 L62.96 78.21 A5.10504 5.10504 -180
								 0 0 57.87 80.71 A4.10433 4.10433 0 0 1 60.84 78.21 L61.26 78.21 C62.23 75.89 65.1 78.05 66.8 77.23
								 C67.88 76.71 68.49 74.99 70.17 75.71 L70.17 73.7 L69.75 73.7 a0.49269 0.49269 -180 0 0 -0.437808
								 -0.742703 L68.9 73.2 a0.49269 0.49269 0 0 1 0.411063 -0.242313 L69.75 72.7 L68.9 72.7 a0.49269 0.49269
								 -180 0 0 -0.740528 -0.628122 L68.05 72.2 a0.49269 0.49269 0 0 1 0.108342 -0.127731 L68.48 71.7 L67.63
								 71.2 L68.48 70.7 L67.63 67.2 a0.76167 0.76167 -180 0 0 -0.84887 1.00078 L64.66 69.7 A2.86694 2.86694
								 0 0 1 64.66 66.7 L63.81 66.7 a0.76167 0.76167 -180 0 0 -0.84887 -1.00078 L60.84 65.2 C59.1 65.75
								 59.56 68.15 58.29 69.2 L58.71 69.7 A3.17386 3.17386 0 0 1 55.32 72.7 L54.89 75.71 C53 77.94 51.63
								 72.9 54.05 72.7 L49.38 70.7 L48.53 70.7 L48.95 69.2 a0.656153 0.656153 0 0 1 -0.84887 -1.00078 L51.5
								 65.7 L51.5 65.2 C53.52 66.78 53.26 63.44 54.89 64.2 L57.87 61.69 L59.14 61.69 L60.84 61.19 L61.26
								 60.69 L60.84 60.69 L62.53 59.19 L62.11 59.19 L60.41 58.69 A3.57059 3.57059 0 0 1 57.87 61.19 L57.87
								 60.69 L58.29 59.69 L58.29 59.19 a0.925903 0.925903 0 0 1 -1.69774 -0.500391 L57.44 58.69 L57.02
								 56.69 a0.49269 0.49269 -180 0 0 0.84887 -0.500391 L58.71 56.19 L60.41 55.19 C57.91 54.64 56.45 57.3
								 54.47 58.19 a0.76167 0.76167 -180 0 0 0.84887 1.00078 L53.2 60.69 L52.77 60.69 C53.17 59.96 54.94
								 59.63 53.62 58.69 L51.5 59.69 L52.77 59.69 A3.04064 3.04064 0 0 1 48.53 60.19 L48.53 59.69 L45.98
								 60.19 L46.83 60.19 C46.24 61.33 45.72 60.39 45.13 60.19 C44.23 59.89 43.16 61.36 42.16 60.69 L43.43
								 60.19 L43.43 59.69 L41.31 59.19 C40.92 58.76 40.19 58.51 39.61 58.69 C38.91 58.92 38.44 59.82 37.49
								 59.19 a0.507187 0.507187 -180 0 0 -6.39488E-14 -1.00078 L33.25 59.19 L31.55 59.69 L29.48 59.2 L29.71
								 59 L28.86 58.49 L24.62 57.99 L23.34 57.99 L23.34 56.99 L22.92 56.99 C19.9 56.98 17.53 60.13 14.43
								 59.5 C13.3 59.83 14.43 60.16 14.43 60.5 C14.43 60.83 13.3 61.16 14.43 61.5 L12.73 61.5 L9.76 62
								 a0.84027 0.84027 0 0 1 2.84217E-14 1.50117 A3.48542 3.48542 -180 0 0 13.16 62.5 C12.44 66.52 6.04
								 63.35 5.94 67.5 L7.64 67.5 L6.37 69 L8.91 69 L8.06 70 L0 73.01 L5.52 71.5 L11.04 69 L11.46 69 C10.87
								 67.47 12.13 67.94 13.16 68 C14.73 68.09 15.73 67.2 16.98 66.5 C17.95 65.96 18.13 67.13 18.68 67.5
								 C19.32 67.94 20.48 67.28 21.22 67.5 L21.74 67.2 L21.79 67.2 L20.94 67.7 A1.74271 1.74271 -180 0
								 0 23.49 67.7 L23.06 71.2 a0.84027 0.84027 0 0 1 0.424435 0.500391 a0.84027 0.84027 0 0 1 -0.424435
								 1.00078 C22.16 73.47 20.34 72.71 21.79 75.21 L22.21 75.21 C20.77 76.49 23.18 77.19 23.49 78.21 L23.49
								 78.51 L23.06 80.01 L22.64 80.01" class="st3"/>
					<path d="M51.38 84.57 L51.07 84.21 a0.896981 0.896981 -180 0 0 -0.84887 -8.52651E-14 C50.87 83.29 51.94 83.95
								 52.77 83.71 C53.02 83.64 53.24 83.5 53.45 83.34 C53.09 84.2 53.05 85.29 51.21 84.1 a0.896981 0.896981
								 0 0 1 0.290684 0.412324 L51.38 84.57" class="st3"/>
					<path d="M48.15 83.48 A1.20585 1.20585 0 0 1 48.1 83.51 a0.328076 0.328076 0 0 1 0.0469693 -0.0332249 A1.20585
								 1.20585 -180 0 0 48.53 82.01 L48.1 82.01 A3.99674 3.99674 -180 0 0 45.13 85.52 L44.28 86.02 L44.28
								 85.52 A4.15587 4.15587 0 0 1 45.98 82.51 L45.13 83.01 A2.8023 2.8023 0 0 1 48.53 81.51 a0.328076
								 0.328076 -180 0 0 0.114486 -0.280179 L51.07 81.71 a0.84027 0.84027 0 0 1 7.10543E-15 1.50117 L49.8
								 82.21 L48.95 84.21 L48.53 84.21 L47.83 85.86 A2.69094 2.69094 0 0 1 51.3 84.62 L48.53 86.02 L47.68
								 86.02 L48.53 84.01 a0.328076 0.328076 -180 0 0 -0.377466 -0.533616" class="st3"/>
					<path d="M60.14 81.17 A1.0578 1.0578 0 0 1 59.84 82.01 L59.56 82.01 A1.0578 1.0578 -180 0 0 60.14 81.17"
							class="st3"/>
					<path d="M20.94 67.5 L20.52 68 L21.79 69.5 L22.21 69.5 L21.79 70.5 L22.64 70 a0.499729 0.499729 0 0 1 -0.84887
								 0.500391 L20.94 71 L21.79 71 L20.94 72.01 L21.79 72.51 L22.21 71 L22.64 71.5 L22.21 71.5 L22.21
								 72.51 L23.06 72.51 C23.35 72.26 23.55 71.85 23.49 71.5 a0.84027 0.84027 -180 0 0 -0.424435 -0.500391
								 L23.49 67.5 A1.74271 1.74271 0 0 1 20.94 67.5" class="st3"/>
					<path d="M21.79 70.5 a0.499729 0.499729 -180 0 0 0.84887 -0.500391 L21.79 70.5" class="st3"/>
					<path d="M23.49 71.5 C23.55 71.85 23.35 72.26 23.06 72.51 a0.84027 0.84027 -180 0 0 0.424435 -1.00078"
							class="st3"/>
				</g>
			</g>
		</g>
	</g>
	<g v:mID="116" v:index="6" v:groupContext="foregroundPage">
		<title>Safeguards</title>
		<v:pageProperties v:drawingScale="0.0393701" v:pageScale="0.0393701" v:drawingUnits="24" v:shadowOffsetX="8.50394"
				v:shadowOffsetY="-8.50394"/>
		<g id="shape1-131" v:mID="1" v:groupContext="shape" transform="translate(95.2816,-18.375)">
			<title>Venn Diagram Shape.1403</title>
			<desc>Safeguards</desc>
			<v:userDefs>
				<v:ud v:nameU="AccentColorID" v:prompt="" v:val="VT0(6):26"/>
				<v:ud v:nameU="visVersion" v:prompt="" v:val="VT0(17):26"/>
				<v:ud v:nameU="AccentColorID" v:prompt="" v:val="VT0(2):26"/>
			</v:userDefs>
			<v:textBlock v:margins="rect(4,4,4,4)" v:tabSpace="42.5197" v:verticalAlign="2"/>
			<v:textRect cx="26.98" cy="91.3284" width="53.97" height="53.9601"/>
			<ellipse cx="26.98" cy="91.3284" rx="26.98" ry="26.98" class="st5"/>
			<text x="9.05" y="111.31" class="st6" v:langID="2057"><v:paragraph v:horizAlign="1"/><v:tabList/>Safeguards</text>		</g>
		<g id="shape2-134" v:mID="2" v:groupContext="shape" transform="translate(105.878,-41.5632)">
			<title>Venn Diagram Shape.118</title>
			<v:userDefs>
				<v:ud v:nameU="AccentColorID" v:prompt="" v:val="VT0(6):26"/>
				<v:ud v:nameU="visVersion" v:prompt="" v:val="VT0(15):26"/>
				<v:ud v:nameU="AccentColorID" v:prompt="" v:val="VT0(3):26"/>
			</v:userDefs>
			<ellipse cx="59.8987" cy="89.1233" rx="59.8987" ry="29.1851" class="st7"/>
			<ellipse cx="59.8987" cy="89.1233" rx="59.8987" ry="29.1851" class="st8"/>
		</g>
		<g id="shape3-137" v:mID="3" v:groupContext="shape" transform="translate(18.375,-41.5632)">
			<title>Venn Diagram Shape.119</title>
			<v:userDefs>
				<v:ud v:nameU="AccentColorID" v:prompt="" v:val="VT0(6):26"/>
				<v:ud v:nameU="visVersion" v:prompt="" v:val="VT0(15):26"/>
				<v:ud v:nameU="AccentColorID" v:prompt="" v:val="VT0(4):26"/>
			</v:userDefs>
			<ellipse cx="59.8987" cy="89.1233" rx="59.8987" ry="29.1851" class="st9"/>
			<ellipse cx="59.8987" cy="89.1233" rx="59.8987" ry="29.1851" class="st8"/>
		</g>
		<g id="shape4-140" v:mID="4" v:groupContext="shape" transform="translate(94.8876,-60.7483)">
			<title>Rectangle.120</title>
			<desc>Risks</desc>
			<v:userDefs>
				<v:ud v:nameU="visVersion" v:val="VT0(15):26"/>
			</v:userDefs>
			<v:textBlock v:margins="rect(4,4,4,4)" v:tabSpace="42.5197"/>
			<v:textRect cx="27.7953" cy="108.308" width="55.6" height="20"/>
			<rect x="0" y="98.3084" width="55.5905" height="20" class="st10"/>
			<text x="17.75" y="111.31" class="st11" v:langID="2057"><v:paragraph v:horizAlign="1"/><v:tabList/>Risks</text>		</g>
		<g id="shape5-143" v:mID="5" v:groupContext="shape" transform="translate(142.52,-60.7483)">
			<title>Rectangle.121</title>
			<desc>Vulnerabilities</desc>
			<v:userDefs>
				<v:ud v:nameU="visVersion" v:val="VT0(15):26"/>
			</v:userDefs>
			<v:textBlock v:margins="rect(4,4,4,4)" v:tabSpace="42.5197"/>
			<v:textRect cx="34.3052" cy="108.308" width="68.62" height="20"/>
			<rect x="0" y="98.3084" width="68.6104" height="20" class="st10"/>
			<text x="5.11" y="111.31" class="st11" v:langID="2057"><v:paragraph v:horizAlign="1"/><v:tabList/>Vulnerabilities</text>		</g>
		<g id="shape6-146" v:mID="6" v:groupContext="shape" transform="translate(29.7136,-60.7483)">
			<title>Rectangle.122</title>
			<desc>Threats</desc>
			<v:userDefs>
				<v:ud v:nameU="visVersion" v:val="VT0(15):26"/>
			</v:userDefs>
			<v:textBlock v:margins="rect(4,4,4,4)" v:tabSpace="42.5197"/>
			<v:textRect cx="27.7953" cy="108.308" width="55.6" height="20"/>
			<rect x="0" y="98.3084" width="55.5905" height="20" class="st10"/>
			<text x="12.48" y="111.31" class="st11" v:langID="2057"><v:paragraph v:horizAlign="1"/><v:tabList/>Threats</text>		</g>
	</g>
</svg>
