<?xml version="1.0" encoding="UTF-8" standalone="no"?>
<!DOCTYPE svg PUBLIC "-//W3C//DTD SVG 1.1//EN" "http://www.w3.org/Graphics/SVG/1.1/DTD/svg11.dtd">
<!-- Generated by Microsoft Visio, SVG Export ISMS-Approach.svg ISMS-Approach -->
<svg xmlns="http://www.w3.org/2000/svg" xmlns:xlink="http://www.w3.org/1999/xlink" xmlns:ev="http://www.w3.org/2001/xml-events"
		xmlns:v="http://schemas.microsoft.com/visio/2003/SVGExtensions/" width="11.3008in" height="6.78622in"
		viewBox="0 0 813.658 488.608" xml:space="preserve" color-interpolation-filters="sRGB" class="st13">
	<title>DevSecOps</title>
	<v:documentProperties v:langID="2057" v:metric="true" v:viewMarkup="false">
		<v:userDefs>
			<v:ud v:nameU="visV14CFF" v:prompt="" v:val="VT0(1):26"/>
			<v:ud v:nameU="visFlowchartType" v:prompt="" v:val="VT4(CrossFunctional)"/>
		</v:userDefs>
	</v:documentProperties>

	<style type="text/css">
	<![CDATA[
		.st1 {fill:#789440;stroke:#000000;stroke-linecap:round;stroke-linejoin:round;stroke-width:0.75}
		.st2 {fill:#d7e3bf;stroke:#000000;stroke-linecap:round;stroke-linejoin:round;stroke-width:0.75}
		.st3 {fill:#000000;font-family:Calibri;font-size:0.833336em}
		.st4 {font-size:1em}
		.st5 {marker-end:url(#mrkr10-47);marker-start:url(#mrkr10-45);stroke:#000000;stroke-linecap:round;stroke-linejoin:round;stroke-width:0.237638}
		.st6 {fill:#000000;fill-opacity:1;stroke:#000000;stroke-opacity:1;stroke-width:0.086174404659928}
		.st7 {fill:none;stroke:none;stroke-linecap:round;stroke-linejoin:round;stroke-width:0.75}
		.st8 {fill:#ffffff;font-family:Calibri;font-size:1.00001em}
		.st9 {stroke:#000000;stroke-linecap:round;stroke-linejoin:round;stroke-width:0.237638}
		.st10 {marker-end:url(#mrkr4-109);stroke:#000000;stroke-linecap:round;stroke-linejoin:round;stroke-width:0.237638}
		.st11 {fill:#e4e4e4;stroke:#000000;stroke-linecap:round;stroke-linejoin:round;stroke-width:0.75}
		.st12 {fill:#ffffff;stroke:#000000;stroke-linecap:round;stroke-linejoin:round;stroke-width:0.75}
		.st13 {fill:none;fill-rule:evenodd;font-size:12px;overflow:visible;stroke-linecap:square;stroke-miterlimit:3}
	]]>
	</style>

	<defs id="Markers">
		<g id="lend10">
			<path
					d="M 0 0.75 C -0.414214 0.75 -0.75 0.414214 -0.75 0 -0.75 -0.414214 -0.414214 -0.75 0 -0.75 0.414214 -0.75 0.75 -0.414214 0.75 0 0.75 0.414214 0.414214 0.75 0 0.75 Z "
					style="stroke:none"/>
		</g>
		<marker id="mrkr10-45" class="st6" v:arrowType="10" v:arrowSize="2" v:setback="7.18837" refX="7.1883697813121"
				orient="auto" markerUnits="strokeWidth" overflow="visible">
			<use xlink:href="#lend10" transform="scale(11.604373757455) "/>
		</marker>
		<marker id="mrkr10-47" class="st6" v:arrowType="10" v:arrowSize="2" v:setback="8.70328" refX="-8.7032803180915"
				orient="auto" markerUnits="strokeWidth" overflow="visible">
			<use xlink:href="#lend10" transform="scale(-11.604373757455,-11.604373757455) "/>
		</marker>
		<g id="lend4">
			<path d="M 2 1 L 0 0 L 2 -1 L 2 1 " style="stroke:none"/>
		</g>
		<marker id="mrkr4-109" class="st6" v:arrowType="4" v:arrowSize="2" v:setback="23.2087" refX="-23.208747514911"
				orient="auto" markerUnits="strokeWidth" overflow="visible">
			<use xlink:href="#lend4" transform="scale(-11.604373757455,-11.604373757455) "/>
		</marker>
	</defs>
	<g v:mID="108" v:index="3" v:groupContext="foregroundPage">
		<v:userDefs>
			<v:ud v:nameU="ShapeNumCriteria" v:prompt="" v:val="VT4(0,0,0,1,1,&#39;&#39;,0,0,0,1,0,1,)"/>
		</v:userDefs>
		<title>ISMS-Approach</title>
		<v:pageProperties v:drawingScale="0.0393701" v:pageScale="0.0393701" v:drawingUnits="24" v:shadowOffsetX="9"
				v:shadowOffsetY="-9"/>
		<v:layer v:name="Connector" v:index="0"/>
		<g id="shape1-1" v:mID="1" v:groupContext="shape" transform="translate(18.375,-18.375)">
			<title>Ellipse.51</title>
			<v:userDefs>
				<v:ud v:nameU="visVersion" v:val="VT0(15):26"/>
			</v:userDefs>
			<path d="M0 262.68 A376.549 225.929 0 1 1 753.1 262.68 A376.549 225.929 0 1 1 0 262.68 Z" class="st1"/>
		</g>
		<g id="shape2-3" v:mID="2" v:groupContext="shape" transform="translate(355.081,-385.203)">
			<title>Round Corner Rectangle.2</title>
			<desc>Engage Management</desc>
			<v:userDefs>
				<v:ud v:nameU="CTypeTopLeftSnip" v:prompt="" v:val="VT0(0):5"/>
				<v:ud v:nameU="CTypeTopRightSnip" v:prompt="" v:val="VT0(0):5"/>
				<v:ud v:nameU="CTypeBotLeftSnip" v:prompt="" v:val="VT0(0):5"/>
				<v:ud v:nameU="CTypeBotRightSnip" v:prompt="" v:val="VT0(0):5"/>
				<v:ud v:nameU="CornerLockHoriz" v:prompt="" v:val="VT0(0):5"/>
				<v:ud v:nameU="CornerLockVert" v:prompt="" v:val="VT0(0):5"/>
				<v:ud v:nameU="CornerLockDiag" v:prompt="" v:val="VT0(0):5"/>
				<v:ud v:nameU="TopLeftOffset" v:prompt="" v:val="VT0(0.15):1"/>
				<v:ud v:nameU="TopRightOffset" v:prompt="" v:val="VT0(0.15):1"/>
				<v:ud v:nameU="BotLeftOffset" v:prompt="" v:val="VT0(0.15):1"/>
				<v:ud v:nameU="BotRightOffset" v:prompt="" v:val="VT0(0.15):1"/>
				<v:ud v:nameU="visVersion" v:prompt="" v:val="VT0(15):26"/>
				<v:ud v:nameU="TopLeftOffset" v:prompt="" v:val="VT0(0.12636929970521):1"/>
				<v:ud v:nameU="TopRightOffset" v:prompt="" v:val="VT0(0.12636929970521):1"/>
				<v:ud v:nameU="BotLeftOffset" v:prompt="" v:val="VT0(0.12636929970521):1"/>
				<v:ud v:nameU="BotRightOffset" v:prompt="" v:val="VT0(0.12636929970521):1"/>
			</v:userDefs>
			<v:textBlock v:margins="rect(4,4,4,4)" v:tabSpace="42.5197"/>
			<v:textRect cx="45.4929" cy="471.757" width="90.99" height="33.7009"/>
			<path d="M9.1 488.61 L81.89 488.61 A9.09844 9.09844 -180 0 0 90.99 479.51 L90.99 464.01 A9.09844 9.09844 -180 0 0 81.89
						 454.91 L9.1 454.91 A9.09844 9.09844 -180 0 0 -0 464.01 L0 479.51 A9.09844 9.09844 -180 0 0 9.1 488.61 Z"
					class="st2"/>
			<text x="30.83" y="468.76" class="st3" v:langID="1033"><v:paragraph v:horizAlign="1"/><v:tabList/>Engage <tspan
						x="18.18" dy="1.2em" class="st4">Management</tspan></text>		</g>
		<g id="shape3-7" v:mID="3" v:groupContext="shape" transform="translate(355.074,-323.391)">
			<title>Round Corner Rectangle.3</title>
			<desc>Clarify Objectives</desc>
			<v:userDefs>
				<v:ud v:nameU="CTypeTopLeftSnip" v:prompt="" v:val="VT0(0):5"/>
				<v:ud v:nameU="CTypeTopRightSnip" v:prompt="" v:val="VT0(0):5"/>
				<v:ud v:nameU="CTypeBotLeftSnip" v:prompt="" v:val="VT0(0):5"/>
				<v:ud v:nameU="CTypeBotRightSnip" v:prompt="" v:val="VT0(0):5"/>
				<v:ud v:nameU="CornerLockHoriz" v:prompt="" v:val="VT0(0):5"/>
				<v:ud v:nameU="CornerLockVert" v:prompt="" v:val="VT0(0):5"/>
				<v:ud v:nameU="CornerLockDiag" v:prompt="" v:val="VT0(0):5"/>
				<v:ud v:nameU="TopLeftOffset" v:prompt="" v:val="VT0(0.15):1"/>
				<v:ud v:nameU="TopRightOffset" v:prompt="" v:val="VT0(0.15):1"/>
				<v:ud v:nameU="BotLeftOffset" v:prompt="" v:val="VT0(0.15):1"/>
				<v:ud v:nameU="BotRightOffset" v:prompt="" v:val="VT0(0.15):1"/>
				<v:ud v:nameU="visVersion" v:prompt="" v:val="VT0(15):26"/>
				<v:ud v:nameU="TopLeftOffset" v:prompt="" v:val="VT0(0.12636929970521):1"/>
				<v:ud v:nameU="TopRightOffset" v:prompt="" v:val="VT0(0.12636929970521):1"/>
				<v:ud v:nameU="BotLeftOffset" v:prompt="" v:val="VT0(0.12636929970521):1"/>
				<v:ud v:nameU="BotRightOffset" v:prompt="" v:val="VT0(0.12636929970521):1"/>
			</v:userDefs>
			<v:textBlock v:margins="rect(4,4,4,4)" v:tabSpace="42.5197"/>
			<v:textRect cx="45.4929" cy="471.757" width="90.99" height="33.7009"/>
			<path d="M9.1 488.61 L81.89 488.61 A9.09844 9.09844 -180 0 0 90.99 479.51 L90.99 464.01 A9.09844 9.09844 -180 0 0 81.89
						 454.91 L9.1 454.91 A9.09844 9.09844 -180 0 0 -0 464.01 L0 479.51 A9.09844 9.09844 -180 0 0 9.1 488.61 Z"
					class="st2"/>
			<text x="10.21" y="474.76" class="st3" v:langID="1033"><v:paragraph v:horizAlign="1"/><v:tabList/>Clarify Objectives</text>		</g>
		<g id="shape4-10" v:mID="4" v:groupContext="shape" transform="translate(355.088,-261.586)">
			<title>Round Corner Rectangle.4</title>
			<desc>Gain Approval</desc>
			<v:userDefs>
				<v:ud v:nameU="CTypeTopLeftSnip" v:prompt="" v:val="VT0(0):5"/>
				<v:ud v:nameU="CTypeTopRightSnip" v:prompt="" v:val="VT0(0):5"/>
				<v:ud v:nameU="CTypeBotLeftSnip" v:prompt="" v:val="VT0(0):5"/>
				<v:ud v:nameU="CTypeBotRightSnip" v:prompt="" v:val="VT0(0):5"/>
				<v:ud v:nameU="CornerLockHoriz" v:prompt="" v:val="VT0(0):5"/>
				<v:ud v:nameU="CornerLockVert" v:prompt="" v:val="VT0(0):5"/>
				<v:ud v:nameU="CornerLockDiag" v:prompt="" v:val="VT0(0):5"/>
				<v:ud v:nameU="TopLeftOffset" v:prompt="" v:val="VT0(0.15):1"/>
				<v:ud v:nameU="TopRightOffset" v:prompt="" v:val="VT0(0.15):1"/>
				<v:ud v:nameU="BotLeftOffset" v:prompt="" v:val="VT0(0.15):1"/>
				<v:ud v:nameU="BotRightOffset" v:prompt="" v:val="VT0(0.15):1"/>
				<v:ud v:nameU="visVersion" v:prompt="" v:val="VT0(15):26"/>
				<v:ud v:nameU="TopLeftOffset" v:prompt="" v:val="VT0(0.12636929970521):1"/>
				<v:ud v:nameU="TopRightOffset" v:prompt="" v:val="VT0(0.12636929970521):1"/>
				<v:ud v:nameU="BotLeftOffset" v:prompt="" v:val="VT0(0.12636929970521):1"/>
				<v:ud v:nameU="BotRightOffset" v:prompt="" v:val="VT0(0.12636929970521):1"/>
			</v:userDefs>
			<v:textBlock v:margins="rect(4,4,4,4)" v:tabSpace="42.5197"/>
			<v:textRect cx="45.4929" cy="471.757" width="90.99" height="33.7009"/>
			<path d="M9.1 488.61 L81.89 488.61 A9.09844 9.09844 -180 0 0 90.99 479.51 L90.99 464.01 A9.09844 9.09844 -180 0 0 81.89
						 454.91 L9.1 454.91 A9.09844 9.09844 -180 0 0 -0 464.01 L0 479.51 A9.09844 9.09844 -180 0 0 9.1 488.61 Z"
					class="st2"/>
			<text x="16.71" y="474.76" class="st3" v:langID="1033"><v:paragraph v:horizAlign="1"/><v:tabList/>Gain Approval</text>		</g>
		<g id="shape5-13" v:mID="5" v:groupContext="shape" transform="translate(244.885,-390.126)">
			<title>Round Corner Rectangle.5</title>
			<desc>Strategy</desc>
			<v:userDefs>
				<v:ud v:nameU="CTypeTopLeftSnip" v:prompt="" v:val="VT0(0):5"/>
				<v:ud v:nameU="CTypeTopRightSnip" v:prompt="" v:val="VT0(0):5"/>
				<v:ud v:nameU="CTypeBotLeftSnip" v:prompt="" v:val="VT0(0):5"/>
				<v:ud v:nameU="CTypeBotRightSnip" v:prompt="" v:val="VT0(0):5"/>
				<v:ud v:nameU="CornerLockHoriz" v:prompt="" v:val="VT0(0):5"/>
				<v:ud v:nameU="CornerLockVert" v:prompt="" v:val="VT0(0):5"/>
				<v:ud v:nameU="CornerLockDiag" v:prompt="" v:val="VT0(0):5"/>
				<v:ud v:nameU="TopLeftOffset" v:prompt="" v:val="VT0(0.15):1"/>
				<v:ud v:nameU="TopRightOffset" v:prompt="" v:val="VT0(0.15):1"/>
				<v:ud v:nameU="BotLeftOffset" v:prompt="" v:val="VT0(0.15):1"/>
				<v:ud v:nameU="BotRightOffset" v:prompt="" v:val="VT0(0.15):1"/>
				<v:ud v:nameU="visVersion" v:prompt="" v:val="VT0(15):26"/>
				<v:ud v:nameU="TopLeftOffset" v:prompt="" v:val="VT0(0.08344961351088):1"/>
				<v:ud v:nameU="TopRightOffset" v:prompt="" v:val="VT0(0.08344961351088):1"/>
				<v:ud v:nameU="BotLeftOffset" v:prompt="" v:val="VT0(0.08344961351088):1"/>
				<v:ud v:nameU="BotRightOffset" v:prompt="" v:val="VT0(0.08344961351088):1"/>
			</v:userDefs>
			<v:textBlock v:margins="rect(4,4,4,4)" v:tabSpace="42.5197"/>
			<v:textRect cx="30.0419" cy="476.688" width="60.09" height="23.84"/>
			<path d="M6.01 488.61 L54.08 488.61 A6.00827 6.00827 -180 0 0 60.08 482.6 L60.08 470.78 A6.00827 6.00827 -180 0 0 54.08
						 464.77 L6.01 464.77 A6.00827 6.00827 -180 0 0 -0 470.78 L0 482.6 A6.00827 6.00827 -180 0 0 6.01 488.61 Z"
					class="st2"/>
			<text x="13.15" y="479.69" class="st3" v:langID="1033"><v:paragraph v:horizAlign="1"/><v:tabList/>Strategy</text>		</g>
		<g id="shape6-16" v:mID="6" v:groupContext="shape" transform="translate(244.878,-359.231)">
			<title>Round Corner Rectangle.6</title>
			<desc>Governance</desc>
			<v:userDefs>
				<v:ud v:nameU="CTypeTopLeftSnip" v:prompt="" v:val="VT0(0):5"/>
				<v:ud v:nameU="CTypeTopRightSnip" v:prompt="" v:val="VT0(0):5"/>
				<v:ud v:nameU="CTypeBotLeftSnip" v:prompt="" v:val="VT0(0):5"/>
				<v:ud v:nameU="CTypeBotRightSnip" v:prompt="" v:val="VT0(0):5"/>
				<v:ud v:nameU="CornerLockHoriz" v:prompt="" v:val="VT0(0):5"/>
				<v:ud v:nameU="CornerLockVert" v:prompt="" v:val="VT0(0):5"/>
				<v:ud v:nameU="CornerLockDiag" v:prompt="" v:val="VT0(0):5"/>
				<v:ud v:nameU="TopLeftOffset" v:prompt="" v:val="VT0(0.15):1"/>
				<v:ud v:nameU="TopRightOffset" v:prompt="" v:val="VT0(0.15):1"/>
				<v:ud v:nameU="BotLeftOffset" v:prompt="" v:val="VT0(0.15):1"/>
				<v:ud v:nameU="BotRightOffset" v:prompt="" v:val="VT0(0.15):1"/>
				<v:ud v:nameU="visVersion" v:prompt="" v:val="VT0(15):26"/>
				<v:ud v:nameU="TopLeftOffset" v:prompt="" v:val="VT0(0.08344961351088):1"/>
				<v:ud v:nameU="TopRightOffset" v:prompt="" v:val="VT0(0.08344961351088):1"/>
				<v:ud v:nameU="BotLeftOffset" v:prompt="" v:val="VT0(0.08344961351088):1"/>
				<v:ud v:nameU="BotRightOffset" v:prompt="" v:val="VT0(0.08344961351088):1"/>
			</v:userDefs>
			<v:textBlock v:margins="rect(4,4,4,4)" v:tabSpace="42.5197"/>
			<v:textRect cx="30.0419" cy="476.688" width="60.09" height="23.84"/>
			<path d="M6.01 488.61 L54.08 488.61 A6.00827 6.00827 -180 0 0 60.08 482.6 L60.08 470.78 A6.00827 6.00827 -180 0 0 54.08
						 464.77 L6.01 464.77 A6.00827 6.00827 -180 0 0 -0 470.78 L0 482.6 A6.00827 6.00827 -180 0 0 6.01 488.61 Z"
					class="st2"/>
			<text x="5.51" y="479.69" class="st3" v:langID="1033"><v:paragraph v:horizAlign="1"/><v:tabList/>Governance</text>		</g>
		<g id="shape7-19" v:mID="7" v:groupContext="shape" transform="translate(244.87,-328.321)">
			<title>Round Corner Rectangle.7</title>
			<desc>Priorities</desc>
			<v:userDefs>
				<v:ud v:nameU="CTypeTopLeftSnip" v:prompt="" v:val="VT0(0):5"/>
				<v:ud v:nameU="CTypeTopRightSnip" v:prompt="" v:val="VT0(0):5"/>
				<v:ud v:nameU="CTypeBotLeftSnip" v:prompt="" v:val="VT0(0):5"/>
				<v:ud v:nameU="CTypeBotRightSnip" v:prompt="" v:val="VT0(0):5"/>
				<v:ud v:nameU="CornerLockHoriz" v:prompt="" v:val="VT0(0):5"/>
				<v:ud v:nameU="CornerLockVert" v:prompt="" v:val="VT0(0):5"/>
				<v:ud v:nameU="CornerLockDiag" v:prompt="" v:val="VT0(0):5"/>
				<v:ud v:nameU="TopLeftOffset" v:prompt="" v:val="VT0(0.15):1"/>
				<v:ud v:nameU="TopRightOffset" v:prompt="" v:val="VT0(0.15):1"/>
				<v:ud v:nameU="BotLeftOffset" v:prompt="" v:val="VT0(0.15):1"/>
				<v:ud v:nameU="BotRightOffset" v:prompt="" v:val="VT0(0.15):1"/>
				<v:ud v:nameU="visVersion" v:prompt="" v:val="VT0(15):26"/>
				<v:ud v:nameU="TopLeftOffset" v:prompt="" v:val="VT0(0.08344961351088):1"/>
				<v:ud v:nameU="TopRightOffset" v:prompt="" v:val="VT0(0.08344961351088):1"/>
				<v:ud v:nameU="BotLeftOffset" v:prompt="" v:val="VT0(0.08344961351088):1"/>
				<v:ud v:nameU="BotRightOffset" v:prompt="" v:val="VT0(0.08344961351088):1"/>
			</v:userDefs>
			<v:textBlock v:margins="rect(4,4,4,4)" v:tabSpace="42.5197"/>
			<v:textRect cx="30.0419" cy="476.688" width="60.09" height="23.84"/>
			<path d="M6.01 488.61 L54.08 488.61 A6.00827 6.00827 -180 0 0 60.08 482.6 L60.08 470.78 A6.00827 6.00827 -180 0 0 54.08
						 464.77 L6.01 464.77 A6.00827 6.00827 -180 0 0 -0 470.78 L0 482.6 A6.00827 6.00827 -180 0 0 6.01 488.61 Z"
					class="st2"/>
			<text x="11.78" y="479.69" class="st3" v:langID="1033"><v:paragraph v:horizAlign="1"/><v:tabList/>Priorities</text>		</g>
		<g id="shape8-22" v:mID="8" v:groupContext="shape" transform="translate(244.87,-297.412)">
			<title>Round Corner Rectangle.8</title>
			<desc>Resources</desc>
			<v:userDefs>
				<v:ud v:nameU="CTypeTopLeftSnip" v:prompt="" v:val="VT0(0):5"/>
				<v:ud v:nameU="CTypeTopRightSnip" v:prompt="" v:val="VT0(0):5"/>
				<v:ud v:nameU="CTypeBotLeftSnip" v:prompt="" v:val="VT0(0):5"/>
				<v:ud v:nameU="CTypeBotRightSnip" v:prompt="" v:val="VT0(0):5"/>
				<v:ud v:nameU="CornerLockHoriz" v:prompt="" v:val="VT0(0):5"/>
				<v:ud v:nameU="CornerLockVert" v:prompt="" v:val="VT0(0):5"/>
				<v:ud v:nameU="CornerLockDiag" v:prompt="" v:val="VT0(0):5"/>
				<v:ud v:nameU="TopLeftOffset" v:prompt="" v:val="VT0(0.15):1"/>
				<v:ud v:nameU="TopRightOffset" v:prompt="" v:val="VT0(0.15):1"/>
				<v:ud v:nameU="BotLeftOffset" v:prompt="" v:val="VT0(0.15):1"/>
				<v:ud v:nameU="BotRightOffset" v:prompt="" v:val="VT0(0.15):1"/>
				<v:ud v:nameU="visVersion" v:prompt="" v:val="VT0(15):26"/>
				<v:ud v:nameU="TopLeftOffset" v:prompt="" v:val="VT0(0.08344961351088):1"/>
				<v:ud v:nameU="TopRightOffset" v:prompt="" v:val="VT0(0.08344961351088):1"/>
				<v:ud v:nameU="BotLeftOffset" v:prompt="" v:val="VT0(0.08344961351088):1"/>
				<v:ud v:nameU="BotRightOffset" v:prompt="" v:val="VT0(0.08344961351088):1"/>
			</v:userDefs>
			<v:textBlock v:margins="rect(4,4,4,4)" v:tabSpace="42.5197"/>
			<v:textRect cx="30.0419" cy="476.688" width="60.09" height="23.84"/>
			<path d="M6.01 488.61 L54.08 488.61 A6.00827 6.00827 -180 0 0 60.08 482.6 L60.08 470.78 A6.00827 6.00827 -180 0 0 54.08
						 464.77 L6.01 464.77 A6.00827 6.00827 -180 0 0 -0 470.78 L0 482.6 A6.00827 6.00827 -180 0 0 6.01 488.61 Z"
					class="st2"/>
			<text x="9.32" y="479.69" class="st3" v:langID="1033"><v:paragraph v:horizAlign="1"/><v:tabList/>Resources</text>		</g>
		<g id="shape9-25" v:mID="9" v:groupContext="shape" transform="translate(244.863,-266.502)">
			<title>Round Corner Rectangle.9</title>
			<desc>Timescales</desc>
			<v:userDefs>
				<v:ud v:nameU="CTypeTopLeftSnip" v:prompt="" v:val="VT0(0):5"/>
				<v:ud v:nameU="CTypeTopRightSnip" v:prompt="" v:val="VT0(0):5"/>
				<v:ud v:nameU="CTypeBotLeftSnip" v:prompt="" v:val="VT0(0):5"/>
				<v:ud v:nameU="CTypeBotRightSnip" v:prompt="" v:val="VT0(0):5"/>
				<v:ud v:nameU="CornerLockHoriz" v:prompt="" v:val="VT0(0):5"/>
				<v:ud v:nameU="CornerLockVert" v:prompt="" v:val="VT0(0):5"/>
				<v:ud v:nameU="CornerLockDiag" v:prompt="" v:val="VT0(0):5"/>
				<v:ud v:nameU="TopLeftOffset" v:prompt="" v:val="VT0(0.15):1"/>
				<v:ud v:nameU="TopRightOffset" v:prompt="" v:val="VT0(0.15):1"/>
				<v:ud v:nameU="BotLeftOffset" v:prompt="" v:val="VT0(0.15):1"/>
				<v:ud v:nameU="BotRightOffset" v:prompt="" v:val="VT0(0.15):1"/>
				<v:ud v:nameU="visVersion" v:prompt="" v:val="VT0(15):26"/>
				<v:ud v:nameU="TopLeftOffset" v:prompt="" v:val="VT0(0.08344961351088):1"/>
				<v:ud v:nameU="TopRightOffset" v:prompt="" v:val="VT0(0.08344961351088):1"/>
				<v:ud v:nameU="BotLeftOffset" v:prompt="" v:val="VT0(0.08344961351088):1"/>
				<v:ud v:nameU="BotRightOffset" v:prompt="" v:val="VT0(0.08344961351088):1"/>
			</v:userDefs>
			<v:textBlock v:margins="rect(4,4,4,4)" v:tabSpace="42.5197"/>
			<v:textRect cx="30.0419" cy="476.688" width="60.09" height="23.84"/>
			<path d="M6.01 488.61 L54.08 488.61 A6.00827 6.00827 -180 0 0 60.08 482.6 L60.08 470.78 A6.00827 6.00827 -180 0 0 54.08
						 464.77 L6.01 464.77 A6.00827 6.00827 -180 0 0 -0 470.78 L0 482.6 A6.00827 6.00827 -180 0 0 6.01 488.61 Z"
					class="st2"/>
			<text x="7.92" y="479.69" class="st3" v:langID="1033"><v:paragraph v:horizAlign="1"/><v:tabList/>Timescales</text>		</g>
		<g id="shape10-28" v:mID="10" v:groupContext="shape" transform="translate(481.495,-363.832)">
			<title>Round Corner Rectangle.10</title>
			<desc>Business Rationale</desc>
			<v:userDefs>
				<v:ud v:nameU="CTypeTopLeftSnip" v:prompt="" v:val="VT0(0):5"/>
				<v:ud v:nameU="CTypeTopRightSnip" v:prompt="" v:val="VT0(0):5"/>
				<v:ud v:nameU="CTypeBotLeftSnip" v:prompt="" v:val="VT0(0):5"/>
				<v:ud v:nameU="CTypeBotRightSnip" v:prompt="" v:val="VT0(0):5"/>
				<v:ud v:nameU="CornerLockHoriz" v:prompt="" v:val="VT0(0):5"/>
				<v:ud v:nameU="CornerLockVert" v:prompt="" v:val="VT0(0):5"/>
				<v:ud v:nameU="CornerLockDiag" v:prompt="" v:val="VT0(0):5"/>
				<v:ud v:nameU="TopLeftOffset" v:prompt="" v:val="VT0(0.15):1"/>
				<v:ud v:nameU="TopRightOffset" v:prompt="" v:val="VT0(0.15):1"/>
				<v:ud v:nameU="BotLeftOffset" v:prompt="" v:val="VT0(0.15):1"/>
				<v:ud v:nameU="BotRightOffset" v:prompt="" v:val="VT0(0.15):1"/>
				<v:ud v:nameU="visVersion" v:prompt="" v:val="VT0(15):26"/>
				<v:ud v:nameU="TopLeftOffset" v:prompt="" v:val="VT0(0.12052):1"/>
				<v:ud v:nameU="TopRightOffset" v:prompt="" v:val="VT0(0.12052):1"/>
				<v:ud v:nameU="BotLeftOffset" v:prompt="" v:val="VT0(0.12052):1"/>
				<v:ud v:nameU="BotRightOffset" v:prompt="" v:val="VT0(0.12052):1"/>
			</v:userDefs>
			<v:textBlock v:margins="rect(4,4,4,4)" v:tabSpace="42.5197"/>
			<v:textRect cx="43.3872" cy="475.759" width="86.78" height="25.6971"/>
			<path d="M8.68 488.61 L78.1 488.61 A8.6773 8.6773 -180 0 0 86.77 479.93 L86.77 471.59 A8.6773 8.6773 -180 0 0 78.1 462.91
						 L8.68 462.91 A8.6773 8.6773 -180 0 0 0 471.59 L0 479.93 A8.6773 8.6773 -180 0 0 8.68 488.61 Z" class="st2"/>
			<text x="5.55" y="478.76" class="st3" v:langID="1033"><v:paragraph v:horizAlign="1"/><v:tabList/>Business Rationale</text>		</g>
		<g id="shape11-31" v:mID="11" v:groupContext="shape" transform="translate(481.495,-327.393)">
			<title>Round Corner Rectangle.13</title>
			<desc>Obligations &#38; Expectations</desc>
			<v:userDefs>
				<v:ud v:nameU="CTypeTopLeftSnip" v:prompt="" v:val="VT0(0):5"/>
				<v:ud v:nameU="CTypeTopRightSnip" v:prompt="" v:val="VT0(0):5"/>
				<v:ud v:nameU="CTypeBotLeftSnip" v:prompt="" v:val="VT0(0):5"/>
				<v:ud v:nameU="CTypeBotRightSnip" v:prompt="" v:val="VT0(0):5"/>
				<v:ud v:nameU="CornerLockHoriz" v:prompt="" v:val="VT0(0):5"/>
				<v:ud v:nameU="CornerLockVert" v:prompt="" v:val="VT0(0):5"/>
				<v:ud v:nameU="CornerLockDiag" v:prompt="" v:val="VT0(0):5"/>
				<v:ud v:nameU="TopLeftOffset" v:prompt="" v:val="VT0(0.15):1"/>
				<v:ud v:nameU="TopRightOffset" v:prompt="" v:val="VT0(0.15):1"/>
				<v:ud v:nameU="BotLeftOffset" v:prompt="" v:val="VT0(0.15):1"/>
				<v:ud v:nameU="BotRightOffset" v:prompt="" v:val="VT0(0.15):1"/>
				<v:ud v:nameU="visVersion" v:prompt="" v:val="VT0(15):26"/>
				<v:ud v:nameU="TopLeftOffset" v:prompt="" v:val="VT0(0.12052):1"/>
				<v:ud v:nameU="TopRightOffset" v:prompt="" v:val="VT0(0.12052):1"/>
				<v:ud v:nameU="BotLeftOffset" v:prompt="" v:val="VT0(0.12052):1"/>
				<v:ud v:nameU="BotRightOffset" v:prompt="" v:val="VT0(0.12052):1"/>
			</v:userDefs>
			<v:textBlock v:margins="rect(4,4,4,4)" v:tabSpace="42.5197"/>
			<v:textRect cx="43.3872" cy="475.759" width="86.78" height="25.6971"/>
			<path d="M8.68 488.61 L78.1 488.61 A8.6773 8.6773 -180 0 0 86.77 479.93 L86.77 471.59 A8.6773 8.6773 -180 0 0 78.1 462.91
						 L8.68 462.91 A8.6773 8.6773 -180 0 0 0 471.59 L0 479.93 A8.6773 8.6773 -180 0 0 8.68 488.61 Z" class="st2"/>
			<text x="15.82" y="472.76" class="st3" v:langID="1033"><v:paragraph v:horizAlign="1"/><v:tabList/>Obligations &#38; <tspan
						x="17.44" dy="1.2em" class="st4">Expectations</tspan></text>		</g>
		<g id="shape12-35" v:mID="12" v:groupContext="shape" transform="translate(481.495,-290.953)">
			<title>Round Corner Rectangle.14</title>
			<desc>Risk &#38; Security Objectives</desc>
			<v:userDefs>
				<v:ud v:nameU="CTypeTopLeftSnip" v:prompt="" v:val="VT0(0):5"/>
				<v:ud v:nameU="CTypeTopRightSnip" v:prompt="" v:val="VT0(0):5"/>
				<v:ud v:nameU="CTypeBotLeftSnip" v:prompt="" v:val="VT0(0):5"/>
				<v:ud v:nameU="CTypeBotRightSnip" v:prompt="" v:val="VT0(0):5"/>
				<v:ud v:nameU="CornerLockHoriz" v:prompt="" v:val="VT0(0):5"/>
				<v:ud v:nameU="CornerLockVert" v:prompt="" v:val="VT0(0):5"/>
				<v:ud v:nameU="CornerLockDiag" v:prompt="" v:val="VT0(0):5"/>
				<v:ud v:nameU="TopLeftOffset" v:prompt="" v:val="VT0(0.15):1"/>
				<v:ud v:nameU="TopRightOffset" v:prompt="" v:val="VT0(0.15):1"/>
				<v:ud v:nameU="BotLeftOffset" v:prompt="" v:val="VT0(0.15):1"/>
				<v:ud v:nameU="BotRightOffset" v:prompt="" v:val="VT0(0.15):1"/>
				<v:ud v:nameU="visVersion" v:prompt="" v:val="VT0(15):26"/>
				<v:ud v:nameU="TopLeftOffset" v:prompt="" v:val="VT0(0.12052):1"/>
				<v:ud v:nameU="TopRightOffset" v:prompt="" v:val="VT0(0.12052):1"/>
				<v:ud v:nameU="BotLeftOffset" v:prompt="" v:val="VT0(0.12052):1"/>
				<v:ud v:nameU="BotRightOffset" v:prompt="" v:val="VT0(0.12052):1"/>
			</v:userDefs>
			<v:textBlock v:margins="rect(4,4,4,4)" v:tabSpace="42.5197"/>
			<v:textRect cx="43.3872" cy="475.759" width="86.78" height="25.6971"/>
			<path d="M8.68 488.61 L78.1 488.61 A8.6773 8.6773 -180 0 0 86.77 479.93 L86.77 471.59 A8.6773 8.6773 -180 0 0 78.1 462.91
						 L8.68 462.91 A8.6773 8.6773 -180 0 0 0 471.59 L0 479.93 A8.6773 8.6773 -180 0 0 8.68 488.61 Z" class="st2"/>
			<text x="13.27" y="472.76" class="st3" v:langID="1033"><v:paragraph v:horizAlign="1"/><v:tabList/>Risk &#38; Security <tspan
						x="22.13" dy="1.2em" class="st4">Objectives</tspan></text>		</g>
		<g id="shape13-39" v:mID="13" v:groupContext="shape" v:layerMember="0" transform="translate(446.06,-340.241)">
			<title>Dynamic connector.16</title>
			<path d="M1.71 488.61 L2.07 488.61 L10.63 488.61 L10.63 452.17 L33.37 452.17" class="st5"/>
		</g>
		<g id="shape14-48" v:mID="14" v:groupContext="shape" v:layerMember="0" transform="translate(446.06,-333.155)">
			<title>Dynamic connector.17</title>
			<path d="M1.71 481.52 L2.07 481.52 L33.37 481.52" class="st5"/>
		</g>
		<g id="shape15-55" v:mID="15" v:groupContext="shape" v:layerMember="0" transform="translate(446.06,-340.241)">
			<title>Dynamic connector.15</title>
			<path d="M1.71 488.61 L2.07 488.61 L10.63 488.61 L10.63 525.05 L33.37 525.05" class="st5"/>
		</g>
		<g id="shape16-62" v:mID="16" v:groupContext="shape" transform="translate(303.629,-36.2248)">
			<title>Circle.26</title>
			<desc>ISO27001 Plan Do Check Act Plan Build Run Monitor Manage Main...</desc>
			<v:userDefs>
				<v:ud v:nameU="visVersion" v:val="VT0(15):26"/>
			</v:userDefs>
			<v:textBlock v:margins="rect(4,4,4,4)"/>
			<v:textRect cx="96.9444" cy="391.663" width="169.66" height="145.417"/>
			<path d="M0 391.66 A96.9444 96.9444 0 0 1 193.89 391.66 A96.9444 96.9444 0 1 1 0 391.66 Z" class="st2"/>
			<text x="77.41" y="376.66" class="st3" v:langID="1033"><v:paragraph v:horizAlign="1"/><v:tabList/>ISO27001<v:newlineChar/><v:paragraph
						v:horizAlign="1"/><tspan x="60.24" dy="1.2em" class="st4">Plan Do Check Act<v:newlineChar/><v:paragraph
							v:horizAlign="1"/></tspan><tspan x="49.82" dy="1.2em" class="st4">Plan Build Run Monitor<v:newlineChar/><v:paragraph
							v:horizAlign="1"/></tspan><tspan x="26.79" dy="1.2em" class="st4">Manage Maintain Monitor Mature</tspan></text>		</g>
		<g id="shape17-68" v:mID="17" v:groupContext="shape" transform="translate(601.395,-129.642)">
			<title>Sheet.17</title>
			<desc>- Management information  - Owners  - Staff  - Supply Chain  ...</desc>
			<v:textBlock v:margins="rect(4,4,4,4)"/>
			<v:textRect cx="96.9444" cy="383.509" width="193.89" height="210.197"/>
			<rect x="0" y="278.411" width="193.889" height="210.197" class="st7"/>
			<text x="4" y="300.71" class="st8" v:langID="1033"><v:paragraph/><v:tabList/>- Management information<v:newlineChar/><v:paragraph/><tspan
						x="4" dy="1.2em" class="st4"> </tspan>- Owners<v:newlineChar/><v:paragraph/><tspan x="4" dy="1.2em"
						class="st4"> </tspan>- Staff<v:newlineChar/><v:paragraph/><tspan x="4" dy="1.2em" class="st4"> </tspan>- Supply Chain<v:newlineChar/><v:paragraph/><tspan
						x="4" dy="1.2em" class="st4"> </tspan>- Regulators<v:newlineChar/><v:paragraph/><tspan x="4" dy="1.2em"
						class="st4"> </tspan>- Authorities<v:newlineChar/><v:paragraph/><tspan x="4" dy="1.2em" class="st4"> </tspan>- Partners<v:newlineChar/><v:paragraph/><tspan
						x="4" dy="1.2em" class="st4"> </tspan>- Adversaries<v:newlineChar/><v:paragraph/><tspan x="4" dy="1.2em"
						class="st4"> </tspan>- Competitors<v:newlineChar/><v:paragraph/><tspan x="4" dy="1.2em" class="st4"> </tspan>- Enemies<v:newlineChar/><v:paragraph/><tspan
						x="4" dy="1.2em" class="st4"> </tspan>- Criminals<v:newlineChar/><v:paragraph/><tspan x="4" dy="1.2em"
						class="st4"> </tspan>- Natural Threats<v:newlineChar/><v:paragraph/><tspan x="4" dy="1.2em" class="st4"> </tspan>- Socient &#38; Culture</text>		</g>
		<g id="shape18-83" v:mID="18" v:groupContext="shape" v:layerMember="0" transform="translate(304.968,-394.963)">
			<title>Dynamic connector.38</title>
			<path d="M0 481.52 L50.11 481.52" class="st9"/>
		</g>
		<g id="shape19-86" v:mID="19" v:groupContext="shape" v:layerMember="0" transform="translate(304.968,-402.046)">
			<title>Dynamic connector.39</title>
			<path d="M0 488.61 L20 488.61 L20 550.41 L50.11 550.41" class="st9"/>
		</g>
		<g id="shape20-89" v:mID="20" v:groupContext="shape" v:layerMember="0" transform="translate(304.968,-402.046)">
			<title>Dynamic connector.40</title>
			<path d="M0 488.61 L20.17 488.61 L20.17 612.22 L50.12 612.22" class="st9"/>
		</g>
		<g id="shape21-92" v:mID="21" v:groupContext="shape" v:layerMember="0" transform="translate(304.961,-371.151)">
			<title>Dynamic connector.41</title>
			<path d="M0 488.61 L20.13 488.61 L20.13 457.71 L50.12 457.71" class="st9"/>
		</g>
		<g id="shape22-95" v:mID="22" v:groupContext="shape" v:layerMember="0" transform="translate(304.954,-333.155)">
			<title>Dynamic connector.42</title>
			<path d="M0 481.52 L50.12 481.52" class="st9"/>
		</g>
		<g id="shape23-98" v:mID="23" v:groupContext="shape" v:layerMember="0" transform="translate(304.954,-309.332)">
			<title>Dynamic connector.43</title>
			<path d="M0 488.61 L20.28 488.61 L20.28 519.5 L50.13 519.5" class="st9"/>
		</g>
		<g id="shape24-101" v:mID="24" v:groupContext="shape" v:layerMember="0" transform="translate(304.947,-271.343)">
			<title>Dynamic connector.44</title>
			<path d="M0 481.53 L50.14 481.51" class="st9"/>
		</g>
		<g id="shape25-104" v:mID="25" v:groupContext="shape" v:layerMember="0" transform="translate(407.657,-385.203)">
			<title>Dynamic connector.45</title>
			<path d="M-7.08 488.61 L-7.08 499.24 L-7.09 499.24 L-7.09 511.2" class="st10"/>
		</g>
		<g id="shape26-110" v:mID="26" v:groupContext="shape" v:layerMember="0" transform="translate(393.487,-323.391)">
			<title>Dynamic connector.46</title>
			<path d="M7.08 488.61 L7.08 499.24 L7.09 499.24 L7.09 511.2" class="st10"/>
		</g>
		<g id="shape27-115" v:mID="27" v:groupContext="shape" v:layerMember="0" transform="translate(407.664,-261.586)">
			<title>Dynamic connector.47</title>
			<path d="M-7.08 488.61 L-7.08 499.24 L-7.09 499.24 L-7.09 514.56" class="st10"/>
		</g>
		<g id="group28-120" transform="translate(415.248,-170.458)" v:mID="28" v:groupContext="group">
			<v:userDefs>
				<v:ud v:nameU="BarWidth" v:prompt="" v:val="VT0(0.2):0"/>
				<v:ud v:nameU="ArrowTipY" v:prompt="" v:val="VT0(0.2):0"/>
				<v:ud v:nameU="ArcHeight" v:prompt="" v:val="VT0(0.7):0"/>
				<v:ud v:nameU="visVersion" v:prompt="" v:val="VT0(15):26"/>
				<v:ud v:nameU="ArrowTipY" v:prompt="" v:val="VT0(0.143675):0"/>
				<v:ud v:nameU="ArcHeight" v:prompt="" v:val="VT0(0.331025):0"/>
			</v:userDefs>
			<title>Curved Left Arrow.53</title>
			<g id="shape29-121" v:mID="29" v:groupContext="shape">
				<title>Sheet.29</title>
				<v:userDefs>
					<v:ud v:nameU="ArcHeight" v:prompt="" v:val="VT0(0.7):0"/>
					<v:ud v:nameU="BarWidth" v:prompt="" v:val="VT0(0.2):0"/>
					<v:ud v:nameU="ArrowBackX" v:prompt="" v:val="VT0(0.2):0"/>
					<v:ud v:nameU="ArrowTipY" v:prompt="" v:val="VT0(0.2):0"/>
					<v:ud v:nameU="FillForegnd" v:prompt="" v:val="VT0(1):26"/>
					<v:ud v:nameU="ArcHeight" v:prompt="" v:val="VT0(0.331025):0"/>
					<v:ud v:nameU="ArrowTipY" v:prompt="" v:val="VT0(0.143675):0"/>
					<v:ud v:nameU="FillForegnd" v:prompt="" v:val="VT5(#ffffff)"/>
				</v:userDefs>
				<path d="M0 478.26 L14.4 467.92 L14.4 471.06 A40.9611 11.9151 -180 0 0 55.37 459.15 L55.37 473.55 A40.9611 11.9151
							 0 0 1 14.4 485.46 L14.4 488.61 L0 478.26 Z" class="st11"/>
			</g>
			<g id="shape28-123" v:mID="28" v:groupContext="groupContent">
				<path d="M0 447.23 L0 461.63 A55.3589 11.9151 0 0 1 55.37 473.55 L55.37 459.15 A55.3589 11.9151 -180 0 0 -0 447.23
							 Z" class="st12"/>
			</g>
		</g>
		<g id="group30-125" transform="translate(330.503,-170.458)" v:mID="30" v:groupContext="group">
			<v:userDefs>
				<v:ud v:nameU="ArcHeight" v:prompt="" v:val="VT0(0.7):0"/>
				<v:ud v:nameU="visVersion" v:prompt="" v:val="VT0(15):26"/>
				<v:ud v:nameU="ArcHeight" v:prompt="" v:val="VT0(0.331025):0"/>
			</v:userDefs>
			<title>Curved Right Arrow.55</title>
			<g id="shape31-126" v:mID="31" v:groupContext="shape">
				<title>Sheet.31</title>
				<v:userDefs>
					<v:ud v:nameU="BarWidth" v:prompt="" v:val="VT0(0.2):0"/>
					<v:ud v:nameU="ArrowTipY" v:prompt="" v:val="VT0(0.2):0"/>
					<v:ud v:nameU="ArcHeight" v:prompt="" v:val="VT0(0.7):0"/>
					<v:ud v:nameU="FillForegnd" v:prompt="" v:val="VT0(1):26"/>
					<v:ud v:nameU="ArrowTipY" v:prompt="" v:val="VT0(0.143675):0"/>
					<v:ud v:nameU="ArcHeight" v:prompt="" v:val="VT0(0.331025):0"/>
					<v:ud v:nameU="FillForegnd" v:prompt="" v:val="VT5(#ffffff)"/>
				</v:userDefs>
				<path d="M55.37 447.23 L55.37 461.63 A55.3589 11.9151 -180 0 0 -0 473.55 L0 459.15 A55.3589 11.9151 0 0 1 55.37 447.23
							 Z" class="st11"/>
			</g>
			<g id="shape30-128" v:mID="30" v:groupContext="groupContent">
				<path d="M55.37 478.26 L40.97 467.92 L40.97 471.06 A40.9611 11.9151 0 0 1 -0 459.15 L0 473.55 A40.9611 11.9151 -180
							 0 0 40.97 485.46 L40.97 488.61 L55.37 478.26 Z" class="st12"/>
			</g>
		</g>
	</g>
</svg>
